<svg xmlns="http://www.w3.org/2000/svg" viewBox="0 0 500 500" style="background-color:#ffffff" data-reactroot=""><g transform="translate(250,421.42857142857144) rotate(0)"><polygon points="26.396558071751052,-10.93381235328828 1.7494954273533618e-15,-28.571428571428573 -26.396558071751052,-10.933812353288284 -5.248486282060085e-15,28.571428571428573" fill="#222222" stroke="#ffffff" stroke-width="0.5"></polygon></g><polygon points="298.77447946247275,384.4887651767585 278.57142857142856,392.85714285714283 258.36837768038436,384.4887651767585 249.99999999999997,364.2857142857143 258.36837768038436,344.0826633946701 278.57142857142856,335.7142857142857 298.77447946247275,344.0826633946701 307.1428571428571,364.2857142857143" fill="#e0e0e0" stroke="#ffffff" stroke-width="0.5"></polygon><g transform="translate(221.42857142857144,364.2857142857143) rotate(0)"><polygon points="26.396558071751052,-10.93381235328828 1.7494954273533618e-15,-28.571428571428573 -26.396558071751052,-10.933812353288284 -5.248486282060085e-15,28.571428571428573" fill="#e0e0e0" stroke="#ffffff" stroke-width="0.5"></polygon></g><polygon points="327.34590803390137,327.3459080339013 307.14285714285717,335.71428571428567 286.93980625181297,327.3459080339013 278.5714285714286,307.1428571428571 286.93980625181297,286.9398062518129 307.14285714285717,278.57142857142856 327.34590803390137,286.9398062518129 335.7142857142857,307.1428571428571" fill="#ff0000" stroke="#ffffff" stroke-width="0.5"></polygon><g transform="translate(250,307.1428571428571) rotate(0)"><polygon points="26.396558071751052,-10.93381235328828 1.7494954273533618e-15,-28.571428571428573 -26.396558071751052,-10.933812353288284 -5.248486282060085e-15,28.571428571428573" fill="#ff0000" stroke="#ffffff" stroke-width="0.5"></polygon></g><polygon points="213.0601937481871,327.3459080339013 192.85714285714286,335.71428571428567 172.65409196609863,327.3459080339013 164.28571428571428,307.1428571428571 172.65409196609863,286.9398062518129 192.85714285714286,278.57142857142856 213.06019374818706,286.9398062518129 221.42857142857144,307.1428571428571" fill="#ff0000" stroke="#ffffff" stroke-width="0.5"></polygon><g transform="translate(335.7142857142857,250) rotate(0)"><polygon points="26.396558071751052,-10.93381235328828 1.7494954273533618e-15,-28.571428571428573 -26.396558071751052,-10.933812353288284 -5.248486282060085e-15,28.571428571428573" fill="#222222" stroke="#ffffff" stroke-width="0.5"></polygon></g><polygon points="298.77447946247275,270.2030508910442 278.57142857142856,278.57142857142856 258.36837768038436,270.2030508910442 249.99999999999997,250 258.36837768038436,229.7969491089558 278.57142857142856,221.42857142857142 298.77447946247275,229.79694910895577 307.1428571428571,250" fill="#222222" stroke="#ffffff" stroke-width="0.5"></polygon><g transform="translate(221.42857142857144,250) rotate(0)"><polygon points="26.396558071751052,-10.93381235328828 1.7494954273533618e-15,-28.571428571428573 -26.396558071751052,-10.933812353288284 -5.248486282060085e-15,28.571428571428573" fill="#222222" stroke="#ffffff" stroke-width="0.5"></polygon></g><polygon points="184.4887651767585,270.2030508910442 164.28571428571428,278.57142857142856 144.08266339467008,270.2030508910442 135.7142857142857,250 144.08266339467005,229.7969491089558 164.28571428571428,221.42857142857142 184.48876517675848,229.79694910895577 192.85714285714286,250" fill="#222222" stroke="#ffffff" stroke-width="0.5"></polygon><g transform="translate(364.2857142857143,192.8571428571429) rotate(0)"><polygon points="26.396558071751052,-10.93381235328828 1.7494954273533618e-15,-28.571428571428573 -26.396558071751052,-10.933812353288284 -5.248486282060085e-15,28.571428571428573" fill="#222222" stroke="#ffffff" stroke-width="0.5"></polygon></g><polygon points="327.34590803390137,213.0601937481871 307.14285714285717,221.42857142857147 286.93980625181297,213.06019374818712 278.5714285714286,192.8571428571429 286.93980625181297,172.6540919660987 307.14285714285717,164.2857142857143 327.34590803390137,172.65409196609866 335.7142857142857,192.8571428571429" fill="#222222" stroke="#ffffff" stroke-width="0.5"></polygon><g transform="translate(250,192.8571428571429) rotate(0)"><polygon points="26.396558071751052,-10.93381235328828 1.7494954273533618e-15,-28.571428571428573 -26.396558071751052,-10.933812353288284 -5.248486282060085e-15,28.571428571428573" fill="#222222" stroke="#ffffff" stroke-width="0.5"></polygon></g><polygon points="213.06019374818706,213.0601937481871 192.85714285714283,221.42857142857147 172.65409196609863,213.06019374818712 164.28571428571425,192.8571428571429 172.6540919660986,172.6540919660987 192.85714285714283,164.2857142857143 213.06019374818703,172.65409196609866 221.42857142857142,192.8571428571429" fill="#222222" stroke="#ffffff" stroke-width="0.5"></polygon><g transform="translate(135.71428571428572,192.8571428571429) rotate(0)"><polygon points="26.396558071751052,-10.93381235328828 1.7494954273533618e-15,-28.571428571428573 -26.396558071751052,-10.933812353288284 -5.248486282060085e-15,28.571428571428573" fill="#222222" stroke="#ffffff" stroke-width="0.5"></polygon></g><polygon points="413.0601937481871,155.91733660532992 392.8571428571429,164.2857142857143 372.6540919660987,155.91733660532995 364.28571428571433,135.71428571428572 372.6540919660987,115.51123482324151 392.8571428571429,107.14285714285715 413.0601937481871,115.5112348232415 421.42857142857144,135.71428571428572" fill="#e0e0e0" stroke="#ffffff" stroke-width="0.5"></polygon><g transform="translate(335.7142857142857,135.71428571428572) rotate(0)"><polygon points="26.396558071751052,-10.93381235328828 1.7494954273533618e-15,-28.571428571428573 -26.396558071751052,-10.933812353288284 -5.248486282060085e-15,28.571428571428573" fill="#e0e0e0" stroke="#ffffff" stroke-width="0.5"></polygon></g><polygon points="298.77447946247275,155.91733660532992 278.57142857142856,164.2857142857143 258.36837768038436,155.91733660532995 249.99999999999997,135.71428571428572 258.36837768038436,115.51123482324151 278.57142857142856,107.14285714285715 298.77447946247275,115.5112348232415 307.1428571428571,135.71428571428572" fill="#e0e0e0" stroke="#ffffff" stroke-width="0.5"></polygon><g transform="translate(221.42857142857142,135.71428571428572) rotate(0)"><polygon points="26.396558071751052,-10.93381235328828 1.7494954273533618e-15,-28.571428571428573 -26.396558071751052,-10.933812353288284 -5.248486282060085e-15,28.571428571428573" fill="#e0e0e0" stroke="#ffffff" stroke-width="0.5"></polygon></g><polygon points="184.4887651767585,155.91733660532992 164.28571428571428,164.2857142857143 144.08266339467008,155.91733660532995 135.7142857142857,135.71428571428572 144.08266339467005,115.51123482324151 164.28571428571428,107.14285714285715 184.48876517675848,115.5112348232415 192.85714285714286,135.71428571428572" fill="#e0e0e0" stroke="#ffffff" stroke-width="0.5"></polygon><g transform="translate(107.14285714285714,135.71428571428572) rotate(0)"><polygon points="26.396558071751052,-10.93381235328828 1.7494954273533618e-15,-28.571428571428573 -26.396558071751052,-10.933812353288284 -5.248486282060085e-15,28.571428571428573" fill="#e0e0e0" stroke="#ffffff" stroke-width="0.5"></polygon></g><polygon points="441.63162231961564,98.77447946247283 421.42857142857144,107.14285714285718 401.22552053752725,98.77447946247283 392.8571428571429,78.57142857142861 401.22552053752725,58.3683776803844 421.42857142857144,50.00000000000004 441.63162231961564,58.36837768038439 450,78.57142857142861" fill="#ff0000" stroke="#ffffff" stroke-width="0.5"></polygon><g transform="translate(364.28571428571433,78.57142857142861) rotate(0)"><polygon points="26.396558071751052,-10.93381235328828 1.7494954273533618e-15,-28.571428571428573 -26.396558071751052,-10.933812353288284 -5.248486282060085e-15,28.571428571428573" fill="#ff0000" stroke="#ffffff" stroke-width="0.5"></polygon></g><polygon points="327.34590803390137,98.77447946247283 307.14285714285717,107.14285714285718 286.93980625181297,98.77447946247283 278.5714285714286,78.57142857142861 286.93980625181297,58.3683776803844 307.14285714285717,50.00000000000004 327.34590803390137,58.36837768038439 335.7142857142857,78.57142857142861" fill="#ff0000" stroke="#ffffff" stroke-width="0.5"></polygon><g transform="translate(250,78.57142857142861) rotate(0)"><polygon points="26.396558071751052,-10.93381235328828 1.7494954273533618e-15,-28.571428571428573 -26.396558071751052,-10.933812353288284 -5.248486282060085e-15,28.571428571428573" fill="#ff0000" stroke="#ffffff" stroke-width="0.5"></polygon></g><polygon points="213.0601937481871,98.77447946247283 192.85714285714286,107.14285714285718 172.65409196609863,98.77447946247283 164.28571428571428,78.57142857142861 172.65409196609863,58.3683776803844 192.85714285714286,50.00000000000004 213.06019374818706,58.36837768038439 221.42857142857144,78.57142857142861" fill="#ff0000" stroke="#ffffff" stroke-width="0.5"></polygon><g transform="translate(135.71428571428572,78.57142857142861) rotate(0)"><polygon points="26.396558071751052,-10.93381235328828 1.7494954273533618e-15,-28.571428571428573 -26.396558071751052,-10.933812353288284 -5.248486282060085e-15,28.571428571428573" fill="#ff0000" stroke="#ffffff" stroke-width="0.5"></polygon></g><polygon points="98.77447946247277,98.77447946247283 78.57142857142856,107.14285714285718 58.36837768038434,98.77447946247283 49.999999999999986,78.57142857142861 58.368377680384334,58.3683776803844 78.57142857142856,50.00000000000004 98.77447946247277,58.36837768038439 107.14285714285712,78.57142857142861" fill="#ff0000" stroke="#ffffff" stroke-width="0.5"></polygon></svg>