<svg xmlns="http://www.w3.org/2000/svg" viewBox="0 0 500 500" style="background-color:#ffffff" data-reactroot=""><polygon points="434.7759065022574,326.53668647301794 326.536686473018,434.7759065022574 173.46331352698206,434.7759065022574 65.22409349774264,326.536686473018 65.22409349774264,173.46331352698206 173.46331352698195,65.2240934977427 326.5366864730178,65.22409349774261 434.77590650225727,173.46331352698192" fill="#53f5f8" stroke="#ffffff" stroke-width="0.5"></polygon><polygon points="382.936074863071,117.06392513692907 382.936074863071,382.9360748630709 117.06392513692907,382.936074863071 117.06392513692904,117.06392513692907" fill="#4a8cea" stroke="#ffffff" stroke-width="0.5"></polygon><polygon points="412.60279772198646,317.3522840962558 317.3522840962558,412.60279772198646 182.6477159037442,412.60279772198646 87.39720227801354,317.3522840962558 87.39720227801351,182.6477159037442 182.64771590374409,87.39720227801357 317.3522840962557,87.39720227801348 412.60279772198646,182.64771590374409" fill="#ffe337" stroke="#ffffff" stroke-width="0.5"></polygon><polygon points="365.9655121145938,134.03448788540624 365.9655121145938,365.96551211459376 134.03448788540624,365.9655121145938 134.03448788540618,134.03448788540624" fill="#fe7f78" stroke="#ffffff" stroke-width="0.5"></polygon><polygon points="390.4296889417156,308.16788171949366 308.16788171949366,390.4296889417156 191.83211828050634,390.4296889417156 109.5703110582844,308.16788171949366 109.57031105828437,191.83211828050636 191.83211828050625,109.57031105828443 308.16788171949355,109.57031105828435 390.42968894171554,191.83211828050625" fill="#53f5f8" stroke="#ffffff" stroke-width="0.5"></polygon><polygon points="348.99494936611666,151.00505063388334 348.99494936611666,348.99494936611666 151.00505063388334,348.99494936611666 151.00505063388334,151.00505063388334" fill="#4a8cea" stroke="#ffffff" stroke-width="0.5"></polygon><polygon points="368.25658016144473,298.98347934273147 298.98347934273147,368.25658016144473 201.01652065726853,368.25658016144473 131.7434198385553,298.9834793427315 131.74341983855527,201.01652065726853 201.01652065726844,131.74341983855533 298.9834793427314,131.74341983855527 368.2565801614447,201.01652065726842" fill="#ffe337" stroke="#ffffff" stroke-width="0.5"></polygon><polygon points="332.0243866176395,167.9756133823605 332.0243866176395,332.0243866176395 167.9756133823605,332.0243866176395 167.97561338236045,167.9756133823605" fill="#fe7f78" stroke="#ffffff" stroke-width="0.5"></polygon><polygon points="346.0834713811738,289.79907696596933 289.79907696596933,346.0834713811738 210.20092303403067,346.0834713811738 153.9165286188262,289.79907696596933 153.91652861882616,210.20092303403067 210.2009230340306,153.9165286188262 289.7990769659693,153.91652861882616 346.0834713811738,210.2009230340306" fill="#53f5f8" stroke="#ffffff" stroke-width="0.5"></polygon><polygon points="315.0538238691624,184.9461761308376 315.0538238691624,315.0538238691624 184.9461761308376,315.0538238691624 184.9461761308376,184.9461761308376" fill="#4a8cea" stroke="#ffffff" stroke-width="0.5"></polygon><polygon points="323.91036260090294,280.6146745892072 280.6146745892072,323.91036260090294 219.38532541079283,323.91036260090294 176.08963739909706,280.6146745892072 176.08963739909706,219.38532541079283 219.38532541079277,176.0896373990971 280.61467458920714,176.08963739909706 323.9103626009029,219.38532541079277" fill="#ffe337" stroke="#ffffff" stroke-width="0.5"></polygon><polygon points="298.0832611206852,201.91673887931478 298.0832611206852,298.0832611206852 201.91673887931478,298.0832611206852 201.91673887931475,201.91673887931478" fill="#fe7f78" stroke="#ffffff" stroke-width="0.5"></polygon><polygon points="301.7372538206321,271.430272212445 271.430272212445,301.7372538206321 228.56972778755497,301.7372538206321 198.26274617936795,271.43027221244506 198.26274617936795,228.569727787555 228.56972778755494,198.26274617936795 271.430272212445,198.26274617936792 301.737253820632,228.56972778755494" fill="#53f5f8" stroke="#ffffff" stroke-width="0.5"></polygon><polygon points="281.1126983722081,218.8873016277919 281.1126983722081,281.1126983722081 218.8873016277919,281.1126983722081 218.8873016277919,218.8873016277919" fill="#4a8cea" stroke="#ffffff" stroke-width="0.5"></polygon><polygon points="279.56414504036115,262.24586983568287 262.24586983568287,279.56414504036115 237.75413016431713,279.56414504036115 220.43585495963882,262.24586983568287 220.43585495963882,237.75413016431713 237.7541301643171,220.43585495963885 262.24586983568287,220.43585495963882 279.56414504036115,237.7541301643171" fill="#ffe337" stroke="#ffffff" stroke-width="0.5"></polygon></svg>