<svg xmlns="http://www.w3.org/2000/svg" viewBox="0 0 500 500" style="background-color:#000000" data-reactroot=""><polygon points="250,48 260,58 250,68 240,58" fill="rgb(200, 49, 119)" stroke="rgb(200, 49, 119)" stroke-width="0"></polygon><polygon points="265.0710678118655,66.92893218813452 265.0710678118655,81.07106781186548 250.92893218813452,81.07106781186548 250.92893218813452,66.92893218813452" fill="rgb(201, 53, 122)" stroke="rgb(201, 53, 122)" stroke-width="0"></polygon><polygon points="242,64 252,74 242,84 232,74" fill="rgb(201, 53, 122)" stroke="rgb(201, 53, 122)" stroke-width="0"></polygon><polygon points="273.0710678118655,82.92893218813452 273.0710678118655,97.07106781186548 258.9289321881345,97.07106781186548 258.9289321881345,82.92893218813452" fill="rgb(202, 58, 126)" stroke="rgb(202, 58, 126)" stroke-width="0"></polygon><polygon points="250,80 260,90 250,100 240,90" fill="rgb(202, 58, 126)" stroke="rgb(202, 58, 126)" stroke-width="0"></polygon><polygon points="241.07106781186548,82.92893218813452 241.07106781186548,97.07106781186548 226.92893218813452,97.07106781186548 226.92893218813452,82.92893218813452" fill="rgb(202, 58, 126)" stroke="rgb(202, 58, 126)" stroke-width="0"></polygon><polygon points="274,96 284,106 274,116 264,106" fill="rgb(203, 62, 129)" stroke="rgb(203, 62, 129)" stroke-width="0"></polygon><polygon points="265.0710678118655,98.92893218813452 265.0710678118655,113.07106781186548 250.92893218813452,113.07106781186548 250.92893218813452,98.92893218813452" fill="rgb(203, 62, 129)" stroke="rgb(203, 62, 129)" stroke-width="0"></polygon><polygon points="242,96 252,106 242,116 232,106" fill="rgb(203, 62, 129)" stroke="rgb(203, 62, 129)" stroke-width="0"></polygon><polygon points="233.07106781186548,98.92893218813452 233.07106781186548,113.07106781186548 218.92893218813452,113.07106781186548 218.92893218813452,98.92893218813452" fill="rgb(203, 62, 129)" stroke="rgb(203, 62, 129)" stroke-width="0"></polygon><polygon points="282,112 292,122 282,132 272,122" fill="rgb(204, 67, 132)" stroke="rgb(204, 67, 132)" stroke-width="0"></polygon><polygon points="273.0710678118655,114.92893218813452 273.0710678118655,129.07106781186548 258.9289321881345,129.07106781186548 258.9289321881345,114.92893218813452" fill="rgb(204, 67, 132)" stroke="rgb(204, 67, 132)" stroke-width="0"></polygon><polygon points="250,112 260,122 250,132 240,122" fill="rgb(204, 67, 132)" stroke="rgb(204, 67, 132)" stroke-width="0"></polygon><polygon points="241.07106781186548,114.92893218813452 241.07106781186548,129.07106781186548 226.92893218813452,129.07106781186548 226.92893218813452,114.92893218813452" fill="rgb(204, 67, 132)" stroke="rgb(204, 67, 132)" stroke-width="0"></polygon><polygon points="218,112 228,122 218,132 208,122" fill="rgb(204, 67, 132)" stroke="rgb(204, 67, 132)" stroke-width="0"></polygon><polygon points="297.0710678118655,130.92893218813452 297.0710678118655,145.07106781186548 282.9289321881345,145.07106781186548 282.9289321881345,130.92893218813452" fill="rgb(205, 71, 135)" stroke="rgb(205, 71, 135)" stroke-width="0"></polygon><polygon points="274,128 284,138 274,148 264,138" fill="rgb(205, 71, 135)" stroke="rgb(205, 71, 135)" stroke-width="0"></polygon><polygon points="265.0710678118655,130.92893218813452 265.0710678118655,145.07106781186548 250.92893218813452,145.07106781186548 250.92893218813452,130.92893218813452" fill="rgb(205, 71, 135)" stroke="rgb(205, 71, 135)" stroke-width="0"></polygon><polygon points="242,128 252,138 242,148 232,138" fill="rgb(205, 71, 135)" stroke="rgb(205, 71, 135)" stroke-width="0"></polygon><polygon points="233.07106781186548,130.92893218813452 233.07106781186548,145.07106781186548 218.92893218813452,145.07106781186548 218.92893218813452,130.92893218813452" fill="rgb(205, 71, 135)" stroke="rgb(205, 71, 135)" stroke-width="0"></polygon><polygon points="210,128 220,138 210,148 200,138" fill="rgb(205, 71, 135)" stroke="rgb(205, 71, 135)" stroke-width="0"></polygon><polygon points="305.0710678118655,146.92893218813452 305.0710678118655,161.07106781186548 290.9289321881345,161.07106781186548 290.9289321881345,146.92893218813452" fill="rgb(207, 76, 139)" stroke="rgb(207, 76, 139)" stroke-width="0"></polygon><polygon points="282,144 292,154 282,164 272,154" fill="rgb(207, 76, 139)" stroke="rgb(207, 76, 139)" stroke-width="0"></polygon><polygon points="273.0710678118655,146.92893218813452 273.0710678118655,161.07106781186548 258.9289321881345,161.07106781186548 258.9289321881345,146.92893218813452" fill="rgb(207, 76, 139)" stroke="rgb(207, 76, 139)" stroke-width="0"></polygon><polygon points="250,144 260,154 250,164 240,154" fill="rgb(207, 76, 139)" stroke="rgb(207, 76, 139)" stroke-width="0"></polygon><polygon points="241.07106781186548,146.92893218813452 241.07106781186548,161.07106781186548 226.92893218813452,161.07106781186548 226.92893218813452,146.92893218813452" fill="rgb(207, 76, 139)" stroke="rgb(207, 76, 139)" stroke-width="0"></polygon><polygon points="218,144 228,154 218,164 208,154" fill="rgb(207, 76, 139)" stroke="rgb(207, 76, 139)" stroke-width="0"></polygon><polygon points="209.07106781186548,146.92893218813452 209.07106781186548,161.07106781186548 194.92893218813452,161.07106781186548 194.92893218813452,146.92893218813452" fill="rgb(207, 76, 139)" stroke="rgb(207, 76, 139)" stroke-width="0"></polygon><polygon points="306,160 316,170 306,180 296,170" fill="rgb(208, 80, 142)" stroke="rgb(208, 80, 142)" stroke-width="0"></polygon><polygon points="297.0710678118655,162.92893218813452 297.0710678118655,177.07106781186548 282.9289321881345,177.07106781186548 282.9289321881345,162.92893218813452" fill="rgb(208, 80, 142)" stroke="rgb(208, 80, 142)" stroke-width="0"></polygon><polygon points="274,160 284,170 274,180 264,170" fill="rgb(208, 80, 142)" stroke="rgb(208, 80, 142)" stroke-width="0"></polygon><polygon points="265.0710678118655,162.92893218813452 265.0710678118655,177.07106781186548 250.92893218813452,177.07106781186548 250.92893218813452,162.92893218813452" fill="rgb(208, 80, 142)" stroke="rgb(208, 80, 142)" stroke-width="0"></polygon><polygon points="242,160 252,170 242,180 232,170" fill="rgb(208, 80, 142)" stroke="rgb(208, 80, 142)" stroke-width="0"></polygon><polygon points="233.07106781186548,162.92893218813452 233.07106781186548,177.07106781186548 218.92893218813452,177.07106781186548 218.92893218813452,162.92893218813452" fill="rgb(208, 80, 142)" stroke="rgb(208, 80, 142)" stroke-width="0"></polygon><polygon points="210,160 220,170 210,180 200,170" fill="rgb(208, 80, 142)" stroke="rgb(208, 80, 142)" stroke-width="0"></polygon><polygon points="201.07106781186548,162.92893218813452 201.07106781186548,177.07106781186548 186.92893218813452,177.07106781186548 186.92893218813452,162.92893218813452" fill="rgb(208, 80, 142)" stroke="rgb(208, 80, 142)" stroke-width="0"></polygon><polygon points="314,176 324,186 314,196 304,186" fill="rgb(209, 84, 145)" stroke="rgb(209, 84, 145)" stroke-width="0"></polygon><polygon points="305.0710678118655,178.92893218813452 305.0710678118655,193.07106781186548 290.9289321881345,193.07106781186548 290.9289321881345,178.92893218813452" fill="rgb(209, 84, 145)" stroke="rgb(209, 84, 145)" stroke-width="0"></polygon><polygon points="282,176 292,186 282,196 272,186" fill="rgb(209, 84, 145)" stroke="rgb(209, 84, 145)" stroke-width="0"></polygon><polygon points="273.0710678118655,178.92893218813452 273.0710678118655,193.07106781186548 258.9289321881345,193.07106781186548 258.9289321881345,178.92893218813452" fill="rgb(209, 84, 145)" stroke="rgb(209, 84, 145)" stroke-width="0"></polygon><polygon points="250,176 260,186 250,196 240,186" fill="rgb(209, 84, 145)" stroke="rgb(209, 84, 145)" stroke-width="0"></polygon><polygon points="241.07106781186548,178.92893218813452 241.07106781186548,193.07106781186548 226.92893218813452,193.07106781186548 226.92893218813452,178.92893218813452" fill="rgb(209, 84, 145)" stroke="rgb(209, 84, 145)" stroke-width="0"></polygon><polygon points="218,176 228,186 218,196 208,186" fill="rgb(209, 84, 145)" stroke="rgb(209, 84, 145)" stroke-width="0"></polygon><polygon points="209.07106781186548,178.92893218813452 209.07106781186548,193.07106781186548 194.92893218813452,193.07106781186548 194.92893218813452,178.92893218813452" fill="rgb(209, 84, 145)" stroke="rgb(209, 84, 145)" stroke-width="0"></polygon><polygon points="186,176 196,186 186,196 176,186" fill="rgb(209, 84, 145)" stroke="rgb(209, 84, 145)" stroke-width="0"></polygon><polygon points="329.0710678118655,194.92893218813452 329.0710678118655,209.07106781186548 314.9289321881345,209.07106781186548 314.9289321881345,194.92893218813452" fill="rgb(210, 89, 149)" stroke="rgb(210, 89, 149)" stroke-width="0"></polygon><polygon points="306,192 316,202 306,212 296,202" fill="rgb(210, 89, 149)" stroke="rgb(210, 89, 149)" stroke-width="0"></polygon><polygon points="297.0710678118655,194.92893218813452 297.0710678118655,209.07106781186548 282.9289321881345,209.07106781186548 282.9289321881345,194.92893218813452" fill="rgb(210, 89, 149)" stroke="rgb(210, 89, 149)" stroke-width="0"></polygon><polygon points="274,192 284,202 274,212 264,202" fill="rgb(210, 89, 149)" stroke="rgb(210, 89, 149)" stroke-width="0"></polygon><polygon points="265.0710678118655,194.92893218813452 265.0710678118655,209.07106781186548 250.92893218813452,209.07106781186548 250.92893218813452,194.92893218813452" fill="rgb(210, 89, 149)" stroke="rgb(210, 89, 149)" stroke-width="0"></polygon><polygon points="242,192 252,202 242,212 232,202" fill="rgb(210, 89, 149)" stroke="rgb(210, 89, 149)" stroke-width="0"></polygon><polygon points="233.07106781186548,194.92893218813452 233.07106781186548,209.07106781186548 218.92893218813452,209.07106781186548 218.92893218813452,194.92893218813452" fill="rgb(210, 89, 149)" stroke="rgb(210, 89, 149)" stroke-width="0"></polygon><polygon points="210,192 220,202 210,212 200,202" fill="rgb(210, 89, 149)" stroke="rgb(210, 89, 149)" stroke-width="0"></polygon><polygon points="201.07106781186548,194.92893218813452 201.07106781186548,209.07106781186548 186.92893218813452,209.07106781186548 186.92893218813452,194.92893218813452" fill="rgb(210, 89, 149)" stroke="rgb(210, 89, 149)" stroke-width="0"></polygon><polygon points="178,192 188,202 178,212 168,202" fill="rgb(210, 89, 149)" stroke="rgb(210, 89, 149)" stroke-width="0"></polygon><polygon points="337.0710678118655,210.92893218813452 337.0710678118655,225.07106781186548 322.9289321881345,225.07106781186548 322.9289321881345,210.92893218813452" fill="rgb(211, 93, 152)" stroke="rgb(211, 93, 152)" stroke-width="0"></polygon><polygon points="314,208 324,218 314,228 304,218" fill="rgb(211, 93, 152)" stroke="rgb(211, 93, 152)" stroke-width="0"></polygon><polygon points="305.0710678118655,210.92893218813452 305.0710678118655,225.07106781186548 290.9289321881345,225.07106781186548 290.9289321881345,210.92893218813452" fill="rgb(211, 93, 152)" stroke="rgb(211, 93, 152)" stroke-width="0"></polygon><polygon points="282,208 292,218 282,228 272,218" fill="rgb(211, 93, 152)" stroke="rgb(211, 93, 152)" stroke-width="0"></polygon><polygon points="273.0710678118655,210.92893218813452 273.0710678118655,225.07106781186548 258.9289321881345,225.07106781186548 258.9289321881345,210.92893218813452" fill="rgb(211, 93, 152)" stroke="rgb(211, 93, 152)" stroke-width="0"></polygon><polygon points="250,208 260,218 250,228 240,218" fill="rgb(211, 93, 152)" stroke="rgb(211, 93, 152)" stroke-width="0"></polygon><polygon points="241.07106781186548,210.92893218813452 241.07106781186548,225.07106781186548 226.92893218813452,225.07106781186548 226.92893218813452,210.92893218813452" fill="rgb(211, 93, 152)" stroke="rgb(211, 93, 152)" stroke-width="0"></polygon><polygon points="218,208 228,218 218,228 208,218" fill="rgb(211, 93, 152)" stroke="rgb(211, 93, 152)" stroke-width="0"></polygon><polygon points="209.07106781186548,210.92893218813452 209.07106781186548,225.07106781186548 194.92893218813452,225.07106781186548 194.92893218813452,210.92893218813452" fill="rgb(211, 93, 152)" stroke="rgb(211, 93, 152)" stroke-width="0"></polygon><polygon points="186,208 196,218 186,228 176,218" fill="rgb(211, 93, 152)" stroke="rgb(211, 93, 152)" stroke-width="0"></polygon><polygon points="177.07106781186548,210.92893218813452 177.07106781186548,225.07106781186548 162.92893218813452,225.07106781186548 162.92893218813452,210.92893218813452" fill="rgb(211, 93, 152)" stroke="rgb(211, 93, 152)" stroke-width="0"></polygon><polygon points="338,224 348,234 338,244 328,234" fill="rgb(212, 98, 155)" stroke="rgb(212, 98, 155)" stroke-width="0"></polygon><polygon points="329.0710678118655,226.92893218813452 329.0710678118655,241.07106781186548 314.9289321881345,241.07106781186548 314.9289321881345,226.92893218813452" fill="rgb(212, 98, 155)" stroke="rgb(212, 98, 155)" stroke-width="0"></polygon><polygon points="306,224 316,234 306,244 296,234" fill="rgb(212, 98, 155)" stroke="rgb(212, 98, 155)" stroke-width="0"></polygon><polygon points="297.0710678118655,226.92893218813452 297.0710678118655,241.07106781186548 282.9289321881345,241.07106781186548 282.9289321881345,226.92893218813452" fill="rgb(212, 98, 155)" stroke="rgb(212, 98, 155)" stroke-width="0"></polygon><polygon points="274,224 284,234 274,244 264,234" fill="rgb(212, 98, 155)" stroke="rgb(212, 98, 155)" stroke-width="0"></polygon><polygon points="265.0710678118655,226.92893218813452 265.0710678118655,241.07106781186548 250.92893218813452,241.07106781186548 250.92893218813452,226.92893218813452" fill="rgb(212, 98, 155)" stroke="rgb(212, 98, 155)" stroke-width="0"></polygon><polygon points="242,224 252,234 242,244 232,234" fill="rgb(212, 98, 155)" stroke="rgb(212, 98, 155)" stroke-width="0"></polygon><polygon points="233.07106781186548,226.92893218813452 233.07106781186548,241.07106781186548 218.92893218813452,241.07106781186548 218.92893218813452,226.92893218813452" fill="rgb(212, 98, 155)" stroke="rgb(212, 98, 155)" stroke-width="0"></polygon><polygon points="210,224 220,234 210,244 200,234" fill="rgb(212, 98, 155)" stroke="rgb(212, 98, 155)" stroke-width="0"></polygon><polygon points="201.07106781186548,226.92893218813452 201.07106781186548,241.07106781186548 186.92893218813452,241.07106781186548 186.92893218813452,226.92893218813452" fill="rgb(212, 98, 155)" stroke="rgb(212, 98, 155)" stroke-width="0"></polygon><polygon points="178,224 188,234 178,244 168,234" fill="rgb(212, 98, 155)" stroke="rgb(212, 98, 155)" stroke-width="0"></polygon><polygon points="169.07106781186548,226.92893218813452 169.07106781186548,241.07106781186548 154.92893218813452,241.07106781186548 154.92893218813452,226.92893218813452" fill="rgb(212, 98, 155)" stroke="rgb(212, 98, 155)" stroke-width="0"></polygon><polygon points="346,240 356,250 346,260 336,250" fill="rgb(213, 102, 159)" stroke="rgb(213, 102, 159)" stroke-width="0"></polygon><polygon points="337.0710678118655,242.92893218813452 337.0710678118655,257.0710678118655 322.9289321881345,257.0710678118655 322.9289321881345,242.92893218813452" fill="rgb(213, 102, 159)" stroke="rgb(213, 102, 159)" stroke-width="0"></polygon><polygon points="314,240 324,250 314,260 304,250" fill="rgb(213, 102, 159)" stroke="rgb(213, 102, 159)" stroke-width="0"></polygon><polygon points="305.0710678118655,242.92893218813452 305.0710678118655,257.0710678118655 290.9289321881345,257.0710678118655 290.9289321881345,242.92893218813452" fill="rgb(213, 102, 159)" stroke="rgb(213, 102, 159)" stroke-width="0"></polygon><polygon points="282,240 292,250 282,260 272,250" fill="rgb(213, 102, 159)" stroke="rgb(213, 102, 159)" stroke-width="0"></polygon><polygon points="273.0710678118655,242.92893218813452 273.0710678118655,257.0710678118655 258.9289321881345,257.0710678118655 258.9289321881345,242.92893218813452" fill="rgb(213, 102, 159)" stroke="rgb(213, 102, 159)" stroke-width="0"></polygon><polygon points="250,240 260,250 250,260 240,250" fill="rgb(213, 102, 159)" stroke="rgb(213, 102, 159)" stroke-width="0"></polygon><polygon points="241.07106781186548,242.92893218813452 241.07106781186548,257.0710678118655 226.92893218813452,257.0710678118655 226.92893218813452,242.92893218813452" fill="rgb(213, 102, 159)" stroke="rgb(213, 102, 159)" stroke-width="0"></polygon><polygon points="218,240 228,250 218,260 208,250" fill="rgb(213, 102, 159)" stroke="rgb(213, 102, 159)" stroke-width="0"></polygon><polygon points="209.07106781186548,242.92893218813452 209.07106781186548,257.0710678118655 194.92893218813452,257.0710678118655 194.92893218813452,242.92893218813452" fill="rgb(213, 102, 159)" stroke="rgb(213, 102, 159)" stroke-width="0"></polygon><polygon points="186,240 196,250 186,260 176,250" fill="rgb(213, 102, 159)" stroke="rgb(213, 102, 159)" stroke-width="0"></polygon><polygon points="177.07106781186548,242.92893218813452 177.07106781186548,257.0710678118655 162.92893218813452,257.0710678118655 162.92893218813452,242.92893218813452" fill="rgb(213, 102, 159)" stroke="rgb(213, 102, 159)" stroke-width="0"></polygon><polygon points="154,240 164,250 154,260 144,250" fill="rgb(213, 102, 159)" stroke="rgb(213, 102, 159)" stroke-width="0"></polygon><polygon points="361.0710678118655,258.9289321881345 361.0710678118655,273.0710678118655 346.9289321881345,273.0710678118655 346.9289321881345,258.9289321881345" fill="rgb(214, 106, 162)" stroke="rgb(214, 106, 162)" stroke-width="0"></polygon><polygon points="338,256 348,266 338,276 328,266" fill="rgb(214, 106, 162)" stroke="rgb(214, 106, 162)" stroke-width="0"></polygon><polygon points="329.0710678118655,258.9289321881345 329.0710678118655,273.0710678118655 314.9289321881345,273.0710678118655 314.9289321881345,258.9289321881345" fill="rgb(214, 106, 162)" stroke="rgb(214, 106, 162)" stroke-width="0"></polygon><polygon points="306,256 316,266 306,276 296,266" fill="rgb(214, 106, 162)" stroke="rgb(214, 106, 162)" stroke-width="0"></polygon><polygon points="297.0710678118655,258.9289321881345 297.0710678118655,273.0710678118655 282.9289321881345,273.0710678118655 282.9289321881345,258.9289321881345" fill="rgb(214, 106, 162)" stroke="rgb(214, 106, 162)" stroke-width="0"></polygon><polygon points="274,256 284,266 274,276 264,266" fill="rgb(214, 106, 162)" stroke="rgb(214, 106, 162)" stroke-width="0"></polygon><polygon points="265.0710678118655,258.9289321881345 265.0710678118655,273.0710678118655 250.92893218813452,273.0710678118655 250.92893218813452,258.9289321881345" fill="rgb(214, 106, 162)" stroke="rgb(214, 106, 162)" stroke-width="0"></polygon><polygon points="242,256 252,266 242,276 232,266" fill="rgb(214, 106, 162)" stroke="rgb(214, 106, 162)" stroke-width="0"></polygon><polygon points="233.07106781186548,258.9289321881345 233.07106781186548,273.0710678118655 218.92893218813452,273.0710678118655 218.92893218813452,258.9289321881345" fill="rgb(214, 106, 162)" stroke="rgb(214, 106, 162)" stroke-width="0"></polygon><polygon points="210,256 220,266 210,276 200,266" fill="rgb(214, 106, 162)" stroke="rgb(214, 106, 162)" stroke-width="0"></polygon><polygon points="201.07106781186548,258.9289321881345 201.07106781186548,273.0710678118655 186.92893218813452,273.0710678118655 186.92893218813452,258.9289321881345" fill="rgb(214, 106, 162)" stroke="rgb(214, 106, 162)" stroke-width="0"></polygon><polygon points="178,256 188,266 178,276 168,266" fill="rgb(214, 106, 162)" stroke="rgb(214, 106, 162)" stroke-width="0"></polygon><polygon points="169.07106781186548,258.9289321881345 169.07106781186548,273.0710678118655 154.92893218813452,273.0710678118655 154.92893218813452,258.9289321881345" fill="rgb(214, 106, 162)" stroke="rgb(214, 106, 162)" stroke-width="0"></polygon><polygon points="146,256 156,266 146,276 136,266" fill="rgb(214, 106, 162)" stroke="rgb(214, 106, 162)" stroke-width="0"></polygon><polygon points="369.0710678118655,274.9289321881345 369.0710678118655,289.0710678118655 354.9289321881345,289.0710678118655 354.9289321881345,274.9289321881345" fill="rgb(215, 111, 165)" stroke="rgb(215, 111, 165)" stroke-width="0"></polygon><polygon points="346,272 356,282 346,292 336,282" fill="rgb(215, 111, 165)" stroke="rgb(215, 111, 165)" stroke-width="0"></polygon><polygon points="337.0710678118655,274.9289321881345 337.0710678118655,289.0710678118655 322.9289321881345,289.0710678118655 322.9289321881345,274.9289321881345" fill="rgb(215, 111, 165)" stroke="rgb(215, 111, 165)" stroke-width="0"></polygon><polygon points="314,272 324,282 314,292 304,282" fill="rgb(215, 111, 165)" stroke="rgb(215, 111, 165)" stroke-width="0"></polygon><polygon points="305.0710678118655,274.9289321881345 305.0710678118655,289.0710678118655 290.9289321881345,289.0710678118655 290.9289321881345,274.9289321881345" fill="rgb(215, 111, 165)" stroke="rgb(215, 111, 165)" stroke-width="0"></polygon><polygon points="282,272 292,282 282,292 272,282" fill="rgb(215, 111, 165)" stroke="rgb(215, 111, 165)" stroke-width="0"></polygon><polygon points="273.0710678118655,274.9289321881345 273.0710678118655,289.0710678118655 258.9289321881345,289.0710678118655 258.9289321881345,274.9289321881345" fill="rgb(215, 111, 165)" stroke="rgb(215, 111, 165)" stroke-width="0"></polygon><polygon points="250,272 260,282 250,292 240,282" fill="rgb(215, 111, 165)" stroke="rgb(215, 111, 165)" stroke-width="0"></polygon><polygon points="241.07106781186548,274.9289321881345 241.07106781186548,289.0710678118655 226.92893218813452,289.0710678118655 226.92893218813452,274.9289321881345" fill="rgb(215, 111, 165)" stroke="rgb(215, 111, 165)" stroke-width="0"></polygon><polygon points="218,272 228,282 218,292 208,282" fill="rgb(215, 111, 165)" stroke="rgb(215, 111, 165)" stroke-width="0"></polygon><polygon points="209.07106781186548,274.9289321881345 209.07106781186548,289.0710678118655 194.92893218813452,289.0710678118655 194.92893218813452,274.9289321881345" fill="rgb(215, 111, 165)" stroke="rgb(215, 111, 165)" stroke-width="0"></polygon><polygon points="186,272 196,282 186,292 176,282" fill="rgb(215, 111, 165)" stroke="rgb(215, 111, 165)" stroke-width="0"></polygon><polygon points="177.07106781186548,274.9289321881345 177.07106781186548,289.0710678118655 162.92893218813452,289.0710678118655 162.92893218813452,274.9289321881345" fill="rgb(215, 111, 165)" stroke="rgb(215, 111, 165)" stroke-width="0"></polygon><polygon points="154,272 164,282 154,292 144,282" fill="rgb(215, 111, 165)" stroke="rgb(215, 111, 165)" stroke-width="0"></polygon><polygon points="145.07106781186548,274.9289321881345 145.07106781186548,289.0710678118655 130.92893218813452,289.0710678118655 130.92893218813452,274.9289321881345" fill="rgb(215, 111, 165)" stroke="rgb(215, 111, 165)" stroke-width="0"></polygon><polygon points="370,288 380,298 370,308 360,298" fill="rgb(216, 115, 168)" stroke="rgb(216, 115, 168)" stroke-width="0"></polygon><polygon points="361.0710678118655,290.9289321881345 361.0710678118655,305.0710678118655 346.9289321881345,305.0710678118655 346.9289321881345,290.9289321881345" fill="rgb(216, 115, 168)" stroke="rgb(216, 115, 168)" stroke-width="0"></polygon><polygon points="338,288 348,298 338,308 328,298" fill="rgb(216, 115, 168)" stroke="rgb(216, 115, 168)" stroke-width="0"></polygon><polygon points="329.0710678118655,290.9289321881345 329.0710678118655,305.0710678118655 314.9289321881345,305.0710678118655 314.9289321881345,290.9289321881345" fill="rgb(216, 115, 168)" stroke="rgb(216, 115, 168)" stroke-width="0"></polygon><polygon points="306,288 316,298 306,308 296,298" fill="rgb(216, 115, 168)" stroke="rgb(216, 115, 168)" stroke-width="0"></polygon><polygon points="297.0710678118655,290.9289321881345 297.0710678118655,305.0710678118655 282.9289321881345,305.0710678118655 282.9289321881345,290.9289321881345" fill="rgb(216, 115, 168)" stroke="rgb(216, 115, 168)" stroke-width="0"></polygon><polygon points="274,288 284,298 274,308 264,298" fill="rgb(216, 115, 168)" stroke="rgb(216, 115, 168)" stroke-width="0"></polygon><polygon points="265.0710678118655,290.9289321881345 265.0710678118655,305.0710678118655 250.92893218813452,305.0710678118655 250.92893218813452,290.9289321881345" fill="rgb(216, 115, 168)" stroke="rgb(216, 115, 168)" stroke-width="0"></polygon><polygon points="242,288 252,298 242,308 232,298" fill="rgb(216, 115, 168)" stroke="rgb(216, 115, 168)" stroke-width="0"></polygon><polygon points="233.07106781186548,290.9289321881345 233.07106781186548,305.0710678118655 218.92893218813452,305.0710678118655 218.92893218813452,290.9289321881345" fill="rgb(216, 115, 168)" stroke="rgb(216, 115, 168)" stroke-width="0"></polygon><polygon points="210,288 220,298 210,308 200,298" fill="rgb(216, 115, 168)" stroke="rgb(216, 115, 168)" stroke-width="0"></polygon><polygon points="201.07106781186548,290.9289321881345 201.07106781186548,305.0710678118655 186.92893218813452,305.0710678118655 186.92893218813452,290.9289321881345" fill="rgb(216, 115, 168)" stroke="rgb(216, 115, 168)" stroke-width="0"></polygon><polygon points="178,288 188,298 178,308 168,298" fill="rgb(216, 115, 168)" stroke="rgb(216, 115, 168)" stroke-width="0"></polygon><polygon points="169.07106781186548,290.9289321881345 169.07106781186548,305.0710678118655 154.92893218813452,305.0710678118655 154.92893218813452,290.9289321881345" fill="rgb(216, 115, 168)" stroke="rgb(216, 115, 168)" stroke-width="0"></polygon><polygon points="146,288 156,298 146,308 136,298" fill="rgb(216, 115, 168)" stroke="rgb(216, 115, 168)" stroke-width="0"></polygon><polygon points="137.07106781186548,290.9289321881345 137.07106781186548,305.0710678118655 122.92893218813452,305.0710678118655 122.92893218813452,290.9289321881345" fill="rgb(216, 115, 168)" stroke="rgb(216, 115, 168)" stroke-width="0"></polygon><polygon points="378,304 388,314 378,324 368,314" fill="rgb(217, 120, 172)" stroke="rgb(217, 120, 172)" stroke-width="0"></polygon><polygon points="369.0710678118655,306.9289321881345 369.0710678118655,321.0710678118655 354.9289321881345,321.0710678118655 354.9289321881345,306.9289321881345" fill="rgb(217, 120, 172)" stroke="rgb(217, 120, 172)" stroke-width="0"></polygon><polygon points="346,304 356,314 346,324 336,314" fill="rgb(217, 120, 172)" stroke="rgb(217, 120, 172)" stroke-width="0"></polygon><polygon points="337.0710678118655,306.9289321881345 337.0710678118655,321.0710678118655 322.9289321881345,321.0710678118655 322.9289321881345,306.9289321881345" fill="rgb(217, 120, 172)" stroke="rgb(217, 120, 172)" stroke-width="0"></polygon><polygon points="314,304 324,314 314,324 304,314" fill="rgb(217, 120, 172)" stroke="rgb(217, 120, 172)" stroke-width="0"></polygon><polygon points="305.0710678118655,306.9289321881345 305.0710678118655,321.0710678118655 290.9289321881345,321.0710678118655 290.9289321881345,306.9289321881345" fill="rgb(217, 120, 172)" stroke="rgb(217, 120, 172)" stroke-width="0"></polygon><polygon points="282,304 292,314 282,324 272,314" fill="rgb(217, 120, 172)" stroke="rgb(217, 120, 172)" stroke-width="0"></polygon><polygon points="273.0710678118655,306.9289321881345 273.0710678118655,321.0710678118655 258.9289321881345,321.0710678118655 258.9289321881345,306.9289321881345" fill="rgb(217, 120, 172)" stroke="rgb(217, 120, 172)" stroke-width="0"></polygon><polygon points="250,304 260,314 250,324 240,314" fill="rgb(217, 120, 172)" stroke="rgb(217, 120, 172)" stroke-width="0"></polygon><polygon points="241.07106781186548,306.9289321881345 241.07106781186548,321.0710678118655 226.92893218813452,321.0710678118655 226.92893218813452,306.9289321881345" fill="rgb(217, 120, 172)" stroke="rgb(217, 120, 172)" stroke-width="0"></polygon><polygon points="218,304 228,314 218,324 208,314" fill="rgb(217, 120, 172)" stroke="rgb(217, 120, 172)" stroke-width="0"></polygon><polygon points="209.07106781186548,306.9289321881345 209.07106781186548,321.0710678118655 194.92893218813452,321.0710678118655 194.92893218813452,306.9289321881345" fill="rgb(217, 120, 172)" stroke="rgb(217, 120, 172)" stroke-width="0"></polygon><polygon points="186,304 196,314 186,324 176,314" fill="rgb(217, 120, 172)" stroke="rgb(217, 120, 172)" stroke-width="0"></polygon><polygon points="177.07106781186548,306.9289321881345 177.07106781186548,321.0710678118655 162.92893218813452,321.0710678118655 162.92893218813452,306.9289321881345" fill="rgb(217, 120, 172)" stroke="rgb(217, 120, 172)" stroke-width="0"></polygon><polygon points="154,304 164,314 154,324 144,314" fill="rgb(217, 120, 172)" stroke="rgb(217, 120, 172)" stroke-width="0"></polygon><polygon points="145.07106781186548,306.9289321881345 145.07106781186548,321.0710678118655 130.92893218813452,321.0710678118655 130.92893218813452,306.9289321881345" fill="rgb(217, 120, 172)" stroke="rgb(217, 120, 172)" stroke-width="0"></polygon><polygon points="122,304 132,314 122,324 112,314" fill="rgb(217, 120, 172)" stroke="rgb(217, 120, 172)" stroke-width="0"></polygon><polygon points="393.0710678118655,322.9289321881345 393.0710678118655,337.0710678118655 378.9289321881345,337.0710678118655 378.9289321881345,322.9289321881345" fill="rgb(218, 124, 175)" stroke="rgb(218, 124, 175)" stroke-width="0"></polygon><polygon points="370,320 380,330 370,340 360,330" fill="rgb(218, 124, 175)" stroke="rgb(218, 124, 175)" stroke-width="0"></polygon><polygon points="361.0710678118655,322.9289321881345 361.0710678118655,337.0710678118655 346.9289321881345,337.0710678118655 346.9289321881345,322.9289321881345" fill="rgb(218, 124, 175)" stroke="rgb(218, 124, 175)" stroke-width="0"></polygon><polygon points="338,320 348,330 338,340 328,330" fill="rgb(218, 124, 175)" stroke="rgb(218, 124, 175)" stroke-width="0"></polygon><polygon points="329.0710678118655,322.9289321881345 329.0710678118655,337.0710678118655 314.9289321881345,337.0710678118655 314.9289321881345,322.9289321881345" fill="rgb(218, 124, 175)" stroke="rgb(218, 124, 175)" stroke-width="0"></polygon><polygon points="306,320 316,330 306,340 296,330" fill="rgb(218, 124, 175)" stroke="rgb(218, 124, 175)" stroke-width="0"></polygon><polygon points="297.0710678118655,322.9289321881345 297.0710678118655,337.0710678118655 282.9289321881345,337.0710678118655 282.9289321881345,322.9289321881345" fill="rgb(218, 124, 175)" stroke="rgb(218, 124, 175)" stroke-width="0"></polygon><polygon points="274,320 284,330 274,340 264,330" fill="rgb(218, 124, 175)" stroke="rgb(218, 124, 175)" stroke-width="0"></polygon><polygon points="265.0710678118655,322.9289321881345 265.0710678118655,337.0710678118655 250.92893218813452,337.0710678118655 250.92893218813452,322.9289321881345" fill="rgb(218, 124, 175)" stroke="rgb(218, 124, 175)" stroke-width="0"></polygon><polygon points="242,320 252,330 242,340 232,330" fill="rgb(218, 124, 175)" stroke="rgb(218, 124, 175)" stroke-width="0"></polygon><polygon points="233.07106781186548,322.9289321881345 233.07106781186548,337.0710678118655 218.92893218813452,337.0710678118655 218.92893218813452,322.9289321881345" fill="rgb(218, 124, 175)" stroke="rgb(218, 124, 175)" stroke-width="0"></polygon><polygon points="210,320 220,330 210,340 200,330" fill="rgb(218, 124, 175)" stroke="rgb(218, 124, 175)" stroke-width="0"></polygon><polygon points="201.07106781186548,322.9289321881345 201.07106781186548,337.0710678118655 186.92893218813452,337.0710678118655 186.92893218813452,322.9289321881345" fill="rgb(218, 124, 175)" stroke="rgb(218, 124, 175)" stroke-width="0"></polygon><polygon points="178,320 188,330 178,340 168,330" fill="rgb(218, 124, 175)" stroke="rgb(218, 124, 175)" stroke-width="0"></polygon><polygon points="169.07106781186548,322.9289321881345 169.07106781186548,337.0710678118655 154.92893218813452,337.0710678118655 154.92893218813452,322.9289321881345" fill="rgb(218, 124, 175)" stroke="rgb(218, 124, 175)" stroke-width="0"></polygon><polygon points="146,320 156,330 146,340 136,330" fill="rgb(218, 124, 175)" stroke="rgb(218, 124, 175)" stroke-width="0"></polygon><polygon points="137.07106781186548,322.9289321881345 137.07106781186548,337.0710678118655 122.92893218813452,337.0710678118655 122.92893218813452,322.9289321881345" fill="rgb(218, 124, 175)" stroke="rgb(218, 124, 175)" stroke-width="0"></polygon><polygon points="114,320 124,330 114,340 104,330" fill="rgb(218, 124, 175)" stroke="rgb(218, 124, 175)" stroke-width="0"></polygon><polygon points="401.0710678118655,338.9289321881345 401.0710678118655,353.0710678118655 386.9289321881345,353.0710678118655 386.9289321881345,338.9289321881345" fill="rgb(220, 129, 178)" stroke="rgb(220, 129, 178)" stroke-width="0"></polygon><polygon points="378,336 388,346 378,356 368,346" fill="rgb(220, 129, 178)" stroke="rgb(220, 129, 178)" stroke-width="0"></polygon><polygon points="369.0710678118655,338.9289321881345 369.0710678118655,353.0710678118655 354.9289321881345,353.0710678118655 354.9289321881345,338.9289321881345" fill="rgb(220, 129, 178)" stroke="rgb(220, 129, 178)" stroke-width="0"></polygon><polygon points="346,336 356,346 346,356 336,346" fill="rgb(220, 129, 178)" stroke="rgb(220, 129, 178)" stroke-width="0"></polygon><polygon points="337.0710678118655,338.9289321881345 337.0710678118655,353.0710678118655 322.9289321881345,353.0710678118655 322.9289321881345,338.9289321881345" fill="rgb(220, 129, 178)" stroke="rgb(220, 129, 178)" stroke-width="0"></polygon><polygon points="314,336 324,346 314,356 304,346" fill="rgb(220, 129, 178)" stroke="rgb(220, 129, 178)" stroke-width="0"></polygon><polygon points="305.0710678118655,338.9289321881345 305.0710678118655,353.0710678118655 290.9289321881345,353.0710678118655 290.9289321881345,338.9289321881345" fill="rgb(220, 129, 178)" stroke="rgb(220, 129, 178)" stroke-width="0"></polygon><polygon points="282,336 292,346 282,356 272,346" fill="rgb(220, 129, 178)" stroke="rgb(220, 129, 178)" stroke-width="0"></polygon><polygon points="273.0710678118655,338.9289321881345 273.0710678118655,353.0710678118655 258.9289321881345,353.0710678118655 258.9289321881345,338.9289321881345" fill="rgb(220, 129, 178)" stroke="rgb(220, 129, 178)" stroke-width="0"></polygon><polygon points="250,336 260,346 250,356 240,346" fill="rgb(220, 129, 178)" stroke="rgb(220, 129, 178)" stroke-width="0"></polygon><polygon points="241.07106781186548,338.9289321881345 241.07106781186548,353.0710678118655 226.92893218813452,353.0710678118655 226.92893218813452,338.9289321881345" fill="rgb(220, 129, 178)" stroke="rgb(220, 129, 178)" stroke-width="0"></polygon><polygon points="218,336 228,346 218,356 208,346" fill="rgb(220, 129, 178)" stroke="rgb(220, 129, 178)" stroke-width="0"></polygon><polygon points="209.07106781186548,338.9289321881345 209.07106781186548,353.0710678118655 194.92893218813452,353.0710678118655 194.92893218813452,338.9289321881345" fill="rgb(220, 129, 178)" stroke="rgb(220, 129, 178)" stroke-width="0"></polygon><polygon points="186,336 196,346 186,356 176,346" fill="rgb(220, 129, 178)" stroke="rgb(220, 129, 178)" stroke-width="0"></polygon><polygon points="177.07106781186548,338.9289321881345 177.07106781186548,353.0710678118655 162.92893218813452,353.0710678118655 162.92893218813452,338.9289321881345" fill="rgb(220, 129, 178)" stroke="rgb(220, 129, 178)" stroke-width="0"></polygon><polygon points="154,336 164,346 154,356 144,346" fill="rgb(220, 129, 178)" stroke="rgb(220, 129, 178)" stroke-width="0"></polygon><polygon points="145.07106781186548,338.9289321881345 145.07106781186548,353.0710678118655 130.92893218813452,353.0710678118655 130.92893218813452,338.9289321881345" fill="rgb(220, 129, 178)" stroke="rgb(220, 129, 178)" stroke-width="0"></polygon><polygon points="122,336 132,346 122,356 112,346" fill="rgb(220, 129, 178)" stroke="rgb(220, 129, 178)" stroke-width="0"></polygon><polygon points="113.07106781186548,338.9289321881345 113.07106781186548,353.0710678118655 98.92893218813452,353.0710678118655 98.92893218813452,338.9289321881345" fill="rgb(220, 129, 178)" stroke="rgb(220, 129, 178)" stroke-width="0"></polygon><polygon points="402,352 412,362 402,372 392,362" fill="rgb(221, 133, 182)" stroke="rgb(221, 133, 182)" stroke-width="0"></polygon><polygon points="393.0710678118655,354.9289321881345 393.0710678118655,369.0710678118655 378.9289321881345,369.0710678118655 378.9289321881345,354.9289321881345" fill="rgb(221, 133, 182)" stroke="rgb(221, 133, 182)" stroke-width="0"></polygon><polygon points="370,352 380,362 370,372 360,362" fill="rgb(221, 133, 182)" stroke="rgb(221, 133, 182)" stroke-width="0"></polygon><polygon points="361.0710678118655,354.9289321881345 361.0710678118655,369.0710678118655 346.9289321881345,369.0710678118655 346.9289321881345,354.9289321881345" fill="rgb(221, 133, 182)" stroke="rgb(221, 133, 182)" stroke-width="0"></polygon><polygon points="338,352 348,362 338,372 328,362" fill="rgb(221, 133, 182)" stroke="rgb(221, 133, 182)" stroke-width="0"></polygon><polygon points="329.0710678118655,354.9289321881345 329.0710678118655,369.0710678118655 314.9289321881345,369.0710678118655 314.9289321881345,354.9289321881345" fill="rgb(221, 133, 182)" stroke="rgb(221, 133, 182)" stroke-width="0"></polygon><polygon points="306,352 316,362 306,372 296,362" fill="rgb(221, 133, 182)" stroke="rgb(221, 133, 182)" stroke-width="0"></polygon><polygon points="297.0710678118655,354.9289321881345 297.0710678118655,369.0710678118655 282.9289321881345,369.0710678118655 282.9289321881345,354.9289321881345" fill="rgb(221, 133, 182)" stroke="rgb(221, 133, 182)" stroke-width="0"></polygon><polygon points="274,352 284,362 274,372 264,362" fill="rgb(221, 133, 182)" stroke="rgb(221, 133, 182)" stroke-width="0"></polygon><polygon points="265.0710678118655,354.9289321881345 265.0710678118655,369.0710678118655 250.92893218813452,369.0710678118655 250.92893218813452,354.9289321881345" fill="rgb(221, 133, 182)" stroke="rgb(221, 133, 182)" stroke-width="0"></polygon><polygon points="242,352 252,362 242,372 232,362" fill="rgb(221, 133, 182)" stroke="rgb(221, 133, 182)" stroke-width="0"></polygon><polygon points="233.07106781186548,354.9289321881345 233.07106781186548,369.0710678118655 218.92893218813452,369.0710678118655 218.92893218813452,354.9289321881345" fill="rgb(221, 133, 182)" stroke="rgb(221, 133, 182)" stroke-width="0"></polygon><polygon points="210,352 220,362 210,372 200,362" fill="rgb(221, 133, 182)" stroke="rgb(221, 133, 182)" stroke-width="0"></polygon><polygon points="201.07106781186548,354.9289321881345 201.07106781186548,369.0710678118655 186.92893218813452,369.0710678118655 186.92893218813452,354.9289321881345" fill="rgb(221, 133, 182)" stroke="rgb(221, 133, 182)" stroke-width="0"></polygon><polygon points="178,352 188,362 178,372 168,362" fill="rgb(221, 133, 182)" stroke="rgb(221, 133, 182)" stroke-width="0"></polygon><polygon points="169.07106781186548,354.9289321881345 169.07106781186548,369.0710678118655 154.92893218813452,369.0710678118655 154.92893218813452,354.9289321881345" fill="rgb(221, 133, 182)" stroke="rgb(221, 133, 182)" stroke-width="0"></polygon><polygon points="146,352 156,362 146,372 136,362" fill="rgb(221, 133, 182)" stroke="rgb(221, 133, 182)" stroke-width="0"></polygon><polygon points="137.07106781186548,354.9289321881345 137.07106781186548,369.0710678118655 122.92893218813452,369.0710678118655 122.92893218813452,354.9289321881345" fill="rgb(221, 133, 182)" stroke="rgb(221, 133, 182)" stroke-width="0"></polygon><polygon points="114,352 124,362 114,372 104,362" fill="rgb(221, 133, 182)" stroke="rgb(221, 133, 182)" stroke-width="0"></polygon><polygon points="105.07106781186548,354.9289321881345 105.07106781186548,369.0710678118655 90.92893218813452,369.0710678118655 90.92893218813452,354.9289321881345" fill="rgb(221, 133, 182)" stroke="rgb(221, 133, 182)" stroke-width="0"></polygon><polygon points="410,368 420,378 410,388 400,378" fill="rgb(222, 137, 185)" stroke="rgb(222, 137, 185)" stroke-width="0"></polygon><polygon points="401.0710678118655,370.9289321881345 401.0710678118655,385.0710678118655 386.9289321881345,385.0710678118655 386.9289321881345,370.9289321881345" fill="rgb(222, 137, 185)" stroke="rgb(222, 137, 185)" stroke-width="0"></polygon><polygon points="378,368 388,378 378,388 368,378" fill="rgb(222, 137, 185)" stroke="rgb(222, 137, 185)" stroke-width="0"></polygon><polygon points="369.0710678118655,370.9289321881345 369.0710678118655,385.0710678118655 354.9289321881345,385.0710678118655 354.9289321881345,370.9289321881345" fill="rgb(222, 137, 185)" stroke="rgb(222, 137, 185)" stroke-width="0"></polygon><polygon points="346,368 356,378 346,388 336,378" fill="rgb(222, 137, 185)" stroke="rgb(222, 137, 185)" stroke-width="0"></polygon><polygon points="337.0710678118655,370.9289321881345 337.0710678118655,385.0710678118655 322.9289321881345,385.0710678118655 322.9289321881345,370.9289321881345" fill="rgb(222, 137, 185)" stroke="rgb(222, 137, 185)" stroke-width="0"></polygon><polygon points="314,368 324,378 314,388 304,378" fill="rgb(222, 137, 185)" stroke="rgb(222, 137, 185)" stroke-width="0"></polygon><polygon points="305.0710678118655,370.9289321881345 305.0710678118655,385.0710678118655 290.9289321881345,385.0710678118655 290.9289321881345,370.9289321881345" fill="rgb(222, 137, 185)" stroke="rgb(222, 137, 185)" stroke-width="0"></polygon><polygon points="282,368 292,378 282,388 272,378" fill="rgb(222, 137, 185)" stroke="rgb(222, 137, 185)" stroke-width="0"></polygon><polygon points="273.0710678118655,370.9289321881345 273.0710678118655,385.0710678118655 258.9289321881345,385.0710678118655 258.9289321881345,370.9289321881345" fill="rgb(222, 137, 185)" stroke="rgb(222, 137, 185)" stroke-width="0"></polygon><polygon points="250,368 260,378 250,388 240,378" fill="rgb(222, 137, 185)" stroke="rgb(222, 137, 185)" stroke-width="0"></polygon><polygon points="241.07106781186548,370.9289321881345 241.07106781186548,385.0710678118655 226.92893218813452,385.0710678118655 226.92893218813452,370.9289321881345" fill="rgb(222, 137, 185)" stroke="rgb(222, 137, 185)" stroke-width="0"></polygon><polygon points="218,368 228,378 218,388 208,378" fill="rgb(222, 137, 185)" stroke="rgb(222, 137, 185)" stroke-width="0"></polygon><polygon points="209.07106781186548,370.9289321881345 209.07106781186548,385.0710678118655 194.92893218813452,385.0710678118655 194.92893218813452,370.9289321881345" fill="rgb(222, 137, 185)" stroke="rgb(222, 137, 185)" stroke-width="0"></polygon><polygon points="186,368 196,378 186,388 176,378" fill="rgb(222, 137, 185)" stroke="rgb(222, 137, 185)" stroke-width="0"></polygon><polygon points="177.07106781186548,370.9289321881345 177.07106781186548,385.0710678118655 162.92893218813452,385.0710678118655 162.92893218813452,370.9289321881345" fill="rgb(222, 137, 185)" stroke="rgb(222, 137, 185)" stroke-width="0"></polygon><polygon points="154,368 164,378 154,388 144,378" fill="rgb(222, 137, 185)" stroke="rgb(222, 137, 185)" stroke-width="0"></polygon><polygon points="145.07106781186548,370.9289321881345 145.07106781186548,385.0710678118655 130.92893218813452,385.0710678118655 130.92893218813452,370.9289321881345" fill="rgb(222, 137, 185)" stroke="rgb(222, 137, 185)" stroke-width="0"></polygon><polygon points="122,368 132,378 122,388 112,378" fill="rgb(222, 137, 185)" stroke="rgb(222, 137, 185)" stroke-width="0"></polygon><polygon points="113.07106781186548,370.9289321881345 113.07106781186548,385.0710678118655 98.92893218813452,385.0710678118655 98.92893218813452,370.9289321881345" fill="rgb(222, 137, 185)" stroke="rgb(222, 137, 185)" stroke-width="0"></polygon><polygon points="90,368 100,378 90,388 80,378" fill="rgb(222, 137, 185)" stroke="rgb(222, 137, 185)" stroke-width="0"></polygon><polygon points="425.0710678118655,386.9289321881345 425.0710678118655,401.0710678118655 410.9289321881345,401.0710678118655 410.9289321881345,386.9289321881345" fill="rgb(223, 142, 188)" stroke="rgb(223, 142, 188)" stroke-width="0"></polygon><polygon points="402,384 412,394 402,404 392,394" fill="rgb(223, 142, 188)" stroke="rgb(223, 142, 188)" stroke-width="0"></polygon><polygon points="393.0710678118655,386.9289321881345 393.0710678118655,401.0710678118655 378.9289321881345,401.0710678118655 378.9289321881345,386.9289321881345" fill="rgb(223, 142, 188)" stroke="rgb(223, 142, 188)" stroke-width="0"></polygon><polygon points="370,384 380,394 370,404 360,394" fill="rgb(223, 142, 188)" stroke="rgb(223, 142, 188)" stroke-width="0"></polygon><polygon points="361.0710678118655,386.9289321881345 361.0710678118655,401.0710678118655 346.9289321881345,401.0710678118655 346.9289321881345,386.9289321881345" fill="rgb(223, 142, 188)" stroke="rgb(223, 142, 188)" stroke-width="0"></polygon><polygon points="338,384 348,394 338,404 328,394" fill="rgb(223, 142, 188)" stroke="rgb(223, 142, 188)" stroke-width="0"></polygon><polygon points="329.0710678118655,386.9289321881345 329.0710678118655,401.0710678118655 314.9289321881345,401.0710678118655 314.9289321881345,386.9289321881345" fill="rgb(223, 142, 188)" stroke="rgb(223, 142, 188)" stroke-width="0"></polygon><polygon points="306,384 316,394 306,404 296,394" fill="rgb(223, 142, 188)" stroke="rgb(223, 142, 188)" stroke-width="0"></polygon><polygon points="297.0710678118655,386.9289321881345 297.0710678118655,401.0710678118655 282.9289321881345,401.0710678118655 282.9289321881345,386.9289321881345" fill="rgb(223, 142, 188)" stroke="rgb(223, 142, 188)" stroke-width="0"></polygon><polygon points="274,384 284,394 274,404 264,394" fill="rgb(223, 142, 188)" stroke="rgb(223, 142, 188)" stroke-width="0"></polygon><polygon points="265.0710678118655,386.9289321881345 265.0710678118655,401.0710678118655 250.92893218813452,401.0710678118655 250.92893218813452,386.9289321881345" fill="rgb(223, 142, 188)" stroke="rgb(223, 142, 188)" stroke-width="0"></polygon><polygon points="242,384 252,394 242,404 232,394" fill="rgb(223, 142, 188)" stroke="rgb(223, 142, 188)" stroke-width="0"></polygon><polygon points="233.07106781186548,386.9289321881345 233.07106781186548,401.0710678118655 218.92893218813452,401.0710678118655 218.92893218813452,386.9289321881345" fill="rgb(223, 142, 188)" stroke="rgb(223, 142, 188)" stroke-width="0"></polygon><polygon points="210,384 220,394 210,404 200,394" fill="rgb(223, 142, 188)" stroke="rgb(223, 142, 188)" stroke-width="0"></polygon><polygon points="201.07106781186548,386.9289321881345 201.07106781186548,401.0710678118655 186.92893218813452,401.0710678118655 186.92893218813452,386.9289321881345" fill="rgb(223, 142, 188)" stroke="rgb(223, 142, 188)" stroke-width="0"></polygon><polygon points="178,384 188,394 178,404 168,394" fill="rgb(223, 142, 188)" stroke="rgb(223, 142, 188)" stroke-width="0"></polygon><polygon points="169.07106781186548,386.9289321881345 169.07106781186548,401.0710678118655 154.92893218813452,401.0710678118655 154.92893218813452,386.9289321881345" fill="rgb(223, 142, 188)" stroke="rgb(223, 142, 188)" stroke-width="0"></polygon><polygon points="146,384 156,394 146,404 136,394" fill="rgb(223, 142, 188)" stroke="rgb(223, 142, 188)" stroke-width="0"></polygon><polygon points="137.07106781186548,386.9289321881345 137.07106781186548,401.0710678118655 122.92893218813452,401.0710678118655 122.92893218813452,386.9289321881345" fill="rgb(223, 142, 188)" stroke="rgb(223, 142, 188)" stroke-width="0"></polygon><polygon points="114,384 124,394 114,404 104,394" fill="rgb(223, 142, 188)" stroke="rgb(223, 142, 188)" stroke-width="0"></polygon><polygon points="105.07106781186548,386.9289321881345 105.07106781186548,401.0710678118655 90.92893218813452,401.0710678118655 90.92893218813452,386.9289321881345" fill="rgb(223, 142, 188)" stroke="rgb(223, 142, 188)" stroke-width="0"></polygon><polygon points="82,384 92,394 82,404 72,394" fill="rgb(223, 142, 188)" stroke="rgb(223, 142, 188)" stroke-width="0"></polygon><polygon points="433.0710678118655,402.9289321881345 433.0710678118655,417.0710678118655 418.9289321881345,417.0710678118655 418.9289321881345,402.9289321881345" fill="rgb(224, 146, 191)" stroke="rgb(224, 146, 191)" stroke-width="0"></polygon><polygon points="410,400 420,410 410,420 400,410" fill="rgb(224, 146, 191)" stroke="rgb(224, 146, 191)" stroke-width="0"></polygon><polygon points="401.0710678118655,402.9289321881345 401.0710678118655,417.0710678118655 386.9289321881345,417.0710678118655 386.9289321881345,402.9289321881345" fill="rgb(224, 146, 191)" stroke="rgb(224, 146, 191)" stroke-width="0"></polygon><polygon points="378,400 388,410 378,420 368,410" fill="rgb(224, 146, 191)" stroke="rgb(224, 146, 191)" stroke-width="0"></polygon><polygon points="369.0710678118655,402.9289321881345 369.0710678118655,417.0710678118655 354.9289321881345,417.0710678118655 354.9289321881345,402.9289321881345" fill="rgb(224, 146, 191)" stroke="rgb(224, 146, 191)" stroke-width="0"></polygon><polygon points="346,400 356,410 346,420 336,410" fill="rgb(224, 146, 191)" stroke="rgb(224, 146, 191)" stroke-width="0"></polygon><polygon points="337.0710678118655,402.9289321881345 337.0710678118655,417.0710678118655 322.9289321881345,417.0710678118655 322.9289321881345,402.9289321881345" fill="rgb(224, 146, 191)" stroke="rgb(224, 146, 191)" stroke-width="0"></polygon><polygon points="314,400 324,410 314,420 304,410" fill="rgb(224, 146, 191)" stroke="rgb(224, 146, 191)" stroke-width="0"></polygon><polygon points="305.0710678118655,402.9289321881345 305.0710678118655,417.0710678118655 290.9289321881345,417.0710678118655 290.9289321881345,402.9289321881345" fill="rgb(224, 146, 191)" stroke="rgb(224, 146, 191)" stroke-width="0"></polygon><polygon points="282,400 292,410 282,420 272,410" fill="rgb(224, 146, 191)" stroke="rgb(224, 146, 191)" stroke-width="0"></polygon><polygon points="273.0710678118655,402.9289321881345 273.0710678118655,417.0710678118655 258.9289321881345,417.0710678118655 258.9289321881345,402.9289321881345" fill="rgb(224, 146, 191)" stroke="rgb(224, 146, 191)" stroke-width="0"></polygon><polygon points="250,400 260,410 250,420 240,410" fill="rgb(224, 146, 191)" stroke="rgb(224, 146, 191)" stroke-width="0"></polygon><polygon points="241.07106781186548,402.9289321881345 241.07106781186548,417.0710678118655 226.92893218813452,417.0710678118655 226.92893218813452,402.9289321881345" fill="rgb(224, 146, 191)" stroke="rgb(224, 146, 191)" stroke-width="0"></polygon><polygon points="218,400 228,410 218,420 208,410" fill="rgb(224, 146, 191)" stroke="rgb(224, 146, 191)" stroke-width="0"></polygon><polygon points="209.07106781186548,402.9289321881345 209.07106781186548,417.0710678118655 194.92893218813452,417.0710678118655 194.92893218813452,402.9289321881345" fill="rgb(224, 146, 191)" stroke="rgb(224, 146, 191)" stroke-width="0"></polygon><polygon points="186,400 196,410 186,420 176,410" fill="rgb(224, 146, 191)" stroke="rgb(224, 146, 191)" stroke-width="0"></polygon><polygon points="177.07106781186548,402.9289321881345 177.07106781186548,417.0710678118655 162.92893218813452,417.0710678118655 162.92893218813452,402.9289321881345" fill="rgb(224, 146, 191)" stroke="rgb(224, 146, 191)" stroke-width="0"></polygon><polygon points="154,400 164,410 154,420 144,410" fill="rgb(224, 146, 191)" stroke="rgb(224, 146, 191)" stroke-width="0"></polygon><polygon points="145.07106781186548,402.9289321881345 145.07106781186548,417.0710678118655 130.92893218813452,417.0710678118655 130.92893218813452,402.9289321881345" fill="rgb(224, 146, 191)" stroke="rgb(224, 146, 191)" stroke-width="0"></polygon><polygon points="122,400 132,410 122,420 112,410" fill="rgb(224, 146, 191)" stroke="rgb(224, 146, 191)" stroke-width="0"></polygon><polygon points="113.07106781186548,402.9289321881345 113.07106781186548,417.0710678118655 98.92893218813452,417.0710678118655 98.92893218813452,402.9289321881345" fill="rgb(224, 146, 191)" stroke="rgb(224, 146, 191)" stroke-width="0"></polygon><polygon points="90,400 100,410 90,420 80,410" fill="rgb(224, 146, 191)" stroke="rgb(224, 146, 191)" stroke-width="0"></polygon><polygon points="81.07106781186548,402.9289321881345 81.07106781186548,417.0710678118655 66.92893218813452,417.0710678118655 66.92893218813452,402.9289321881345" fill="rgb(224, 146, 191)" stroke="rgb(224, 146, 191)" stroke-width="0"></polygon><polygon points="434,416 444,426 434,436 424,426" fill="rgb(225, 151, 195)" stroke="rgb(225, 151, 195)" stroke-width="0"></polygon><polygon points="425.0710678118655,418.9289321881345 425.0710678118655,433.0710678118655 410.9289321881345,433.0710678118655 410.9289321881345,418.9289321881345" fill="rgb(225, 151, 195)" stroke="rgb(225, 151, 195)" stroke-width="0"></polygon><polygon points="402,416 412,426 402,436 392,426" fill="rgb(225, 151, 195)" stroke="rgb(225, 151, 195)" stroke-width="0"></polygon><polygon points="393.0710678118655,418.9289321881345 393.0710678118655,433.0710678118655 378.9289321881345,433.0710678118655 378.9289321881345,418.9289321881345" fill="rgb(225, 151, 195)" stroke="rgb(225, 151, 195)" stroke-width="0"></polygon><polygon points="370,416 380,426 370,436 360,426" fill="rgb(225, 151, 195)" stroke="rgb(225, 151, 195)" stroke-width="0"></polygon><polygon points="361.0710678118655,418.9289321881345 361.0710678118655,433.0710678118655 346.9289321881345,433.0710678118655 346.9289321881345,418.9289321881345" fill="rgb(225, 151, 195)" stroke="rgb(225, 151, 195)" stroke-width="0"></polygon><polygon points="338,416 348,426 338,436 328,426" fill="rgb(225, 151, 195)" stroke="rgb(225, 151, 195)" stroke-width="0"></polygon><polygon points="329.0710678118655,418.9289321881345 329.0710678118655,433.0710678118655 314.9289321881345,433.0710678118655 314.9289321881345,418.9289321881345" fill="rgb(225, 151, 195)" stroke="rgb(225, 151, 195)" stroke-width="0"></polygon><polygon points="306,416 316,426 306,436 296,426" fill="rgb(225, 151, 195)" stroke="rgb(225, 151, 195)" stroke-width="0"></polygon><polygon points="297.0710678118655,418.9289321881345 297.0710678118655,433.0710678118655 282.9289321881345,433.0710678118655 282.9289321881345,418.9289321881345" fill="rgb(225, 151, 195)" stroke="rgb(225, 151, 195)" stroke-width="0"></polygon><polygon points="274,416 284,426 274,436 264,426" fill="rgb(225, 151, 195)" stroke="rgb(225, 151, 195)" stroke-width="0"></polygon><polygon points="265.0710678118655,418.9289321881345 265.0710678118655,433.0710678118655 250.92893218813452,433.0710678118655 250.92893218813452,418.9289321881345" fill="rgb(225, 151, 195)" stroke="rgb(225, 151, 195)" stroke-width="0"></polygon><polygon points="242,416 252,426 242,436 232,426" fill="rgb(225, 151, 195)" stroke="rgb(225, 151, 195)" stroke-width="0"></polygon><polygon points="233.07106781186548,418.9289321881345 233.07106781186548,433.0710678118655 218.92893218813452,433.0710678118655 218.92893218813452,418.9289321881345" fill="rgb(225, 151, 195)" stroke="rgb(225, 151, 195)" stroke-width="0"></polygon><polygon points="210,416 220,426 210,436 200,426" fill="rgb(225, 151, 195)" stroke="rgb(225, 151, 195)" stroke-width="0"></polygon><polygon points="201.07106781186548,418.9289321881345 201.07106781186548,433.0710678118655 186.92893218813452,433.0710678118655 186.92893218813452,418.9289321881345" fill="rgb(225, 151, 195)" stroke="rgb(225, 151, 195)" stroke-width="0"></polygon><polygon points="178,416 188,426 178,436 168,426" fill="rgb(225, 151, 195)" stroke="rgb(225, 151, 195)" stroke-width="0"></polygon><polygon points="169.07106781186548,418.9289321881345 169.07106781186548,433.0710678118655 154.92893218813452,433.0710678118655 154.92893218813452,418.9289321881345" fill="rgb(225, 151, 195)" stroke="rgb(225, 151, 195)" stroke-width="0"></polygon><polygon points="146,416 156,426 146,436 136,426" fill="rgb(225, 151, 195)" stroke="rgb(225, 151, 195)" stroke-width="0"></polygon><polygon points="137.07106781186548,418.9289321881345 137.07106781186548,433.0710678118655 122.92893218813452,433.0710678118655 122.92893218813452,418.9289321881345" fill="rgb(225, 151, 195)" stroke="rgb(225, 151, 195)" stroke-width="0"></polygon><polygon points="114,416 124,426 114,436 104,426" fill="rgb(225, 151, 195)" stroke="rgb(225, 151, 195)" stroke-width="0"></polygon><polygon points="105.07106781186548,418.9289321881345 105.07106781186548,433.0710678118655 90.92893218813452,433.0710678118655 90.92893218813452,418.9289321881345" fill="rgb(225, 151, 195)" stroke="rgb(225, 151, 195)" stroke-width="0"></polygon><polygon points="82,416 92,426 82,436 72,426" fill="rgb(225, 151, 195)" stroke="rgb(225, 151, 195)" stroke-width="0"></polygon><polygon points="73.07106781186548,418.9289321881345 73.07106781186548,433.0710678118655 58.928932188134524,433.0710678118655 58.928932188134524,418.9289321881345" fill="rgb(225, 151, 195)" stroke="rgb(225, 151, 195)" stroke-width="0"></polygon><polygon points="442,432 452,442 442,452 432,442" fill="rgb(226, 155, 198)" stroke="rgb(226, 155, 198)" stroke-width="0"></polygon><polygon points="433.0710678118655,434.9289321881345 433.0710678118655,449.0710678118655 418.9289321881345,449.0710678118655 418.9289321881345,434.9289321881345" fill="rgb(226, 155, 198)" stroke="rgb(226, 155, 198)" stroke-width="0"></polygon><polygon points="410,432 420,442 410,452 400,442" fill="rgb(226, 155, 198)" stroke="rgb(226, 155, 198)" stroke-width="0"></polygon><polygon points="401.0710678118655,434.9289321881345 401.0710678118655,449.0710678118655 386.9289321881345,449.0710678118655 386.9289321881345,434.9289321881345" fill="rgb(226, 155, 198)" stroke="rgb(226, 155, 198)" stroke-width="0"></polygon><polygon points="378,432 388,442 378,452 368,442" fill="rgb(226, 155, 198)" stroke="rgb(226, 155, 198)" stroke-width="0"></polygon><polygon points="369.0710678118655,434.9289321881345 369.0710678118655,449.0710678118655 354.9289321881345,449.0710678118655 354.9289321881345,434.9289321881345" fill="rgb(226, 155, 198)" stroke="rgb(226, 155, 198)" stroke-width="0"></polygon><polygon points="346,432 356,442 346,452 336,442" fill="rgb(226, 155, 198)" stroke="rgb(226, 155, 198)" stroke-width="0"></polygon><polygon points="337.0710678118655,434.9289321881345 337.0710678118655,449.0710678118655 322.9289321881345,449.0710678118655 322.9289321881345,434.9289321881345" fill="rgb(226, 155, 198)" stroke="rgb(226, 155, 198)" stroke-width="0"></polygon><polygon points="314,432 324,442 314,452 304,442" fill="rgb(226, 155, 198)" stroke="rgb(226, 155, 198)" stroke-width="0"></polygon><polygon points="305.0710678118655,434.9289321881345 305.0710678118655,449.0710678118655 290.9289321881345,449.0710678118655 290.9289321881345,434.9289321881345" fill="rgb(226, 155, 198)" stroke="rgb(226, 155, 198)" stroke-width="0"></polygon><polygon points="282,432 292,442 282,452 272,442" fill="rgb(226, 155, 198)" stroke="rgb(226, 155, 198)" stroke-width="0"></polygon><polygon points="273.0710678118655,434.9289321881345 273.0710678118655,449.0710678118655 258.9289321881345,449.0710678118655 258.9289321881345,434.9289321881345" fill="rgb(226, 155, 198)" stroke="rgb(226, 155, 198)" stroke-width="0"></polygon><polygon points="250,432 260,442 250,452 240,442" fill="rgb(226, 155, 198)" stroke="rgb(226, 155, 198)" stroke-width="0"></polygon><polygon points="241.07106781186548,434.9289321881345 241.07106781186548,449.0710678118655 226.92893218813452,449.0710678118655 226.92893218813452,434.9289321881345" fill="rgb(226, 155, 198)" stroke="rgb(226, 155, 198)" stroke-width="0"></polygon><polygon points="218,432 228,442 218,452 208,442" fill="rgb(226, 155, 198)" stroke="rgb(226, 155, 198)" stroke-width="0"></polygon><polygon points="209.07106781186548,434.9289321881345 209.07106781186548,449.0710678118655 194.92893218813452,449.0710678118655 194.92893218813452,434.9289321881345" fill="rgb(226, 155, 198)" stroke="rgb(226, 155, 198)" stroke-width="0"></polygon><polygon points="186,432 196,442 186,452 176,442" fill="rgb(226, 155, 198)" stroke="rgb(226, 155, 198)" stroke-width="0"></polygon><polygon points="177.07106781186548,434.9289321881345 177.07106781186548,449.0710678118655 162.92893218813452,449.0710678118655 162.92893218813452,434.9289321881345" fill="rgb(226, 155, 198)" stroke="rgb(226, 155, 198)" stroke-width="0"></polygon><polygon points="154,432 164,442 154,452 144,442" fill="rgb(226, 155, 198)" stroke="rgb(226, 155, 198)" stroke-width="0"></polygon><polygon points="145.07106781186548,434.9289321881345 145.07106781186548,449.0710678118655 130.92893218813452,449.0710678118655 130.92893218813452,434.9289321881345" fill="rgb(226, 155, 198)" stroke="rgb(226, 155, 198)" stroke-width="0"></polygon><polygon points="122,432 132,442 122,452 112,442" fill="rgb(226, 155, 198)" stroke="rgb(226, 155, 198)" stroke-width="0"></polygon><polygon points="113.07106781186548,434.9289321881345 113.07106781186548,449.0710678118655 98.92893218813452,449.0710678118655 98.92893218813452,434.9289321881345" fill="rgb(226, 155, 198)" stroke="rgb(226, 155, 198)" stroke-width="0"></polygon><polygon points="90,432 100,442 90,452 80,442" fill="rgb(226, 155, 198)" stroke="rgb(226, 155, 198)" stroke-width="0"></polygon><polygon points="81.07106781186548,434.9289321881345 81.07106781186548,449.0710678118655 66.92893218813452,449.0710678118655 66.92893218813452,434.9289321881345" fill="rgb(226, 155, 198)" stroke="rgb(226, 155, 198)" stroke-width="0"></polygon><polygon points="58,432 68,442 58,452 48,442" fill="rgb(226, 155, 198)" stroke="rgb(226, 155, 198)" stroke-width="0"></polygon></svg>