<svg xmlns="http://www.w3.org/2000/svg" viewBox="0 0 500 500" style="background-color:#000000" data-reactroot=""><polygon points="66.66666666666667,55.55555555555556 68.79268573536162,61.53400259715952 74.52340867985053,58.80992465348282 71.79933073617383,64.54064759797174 77.77777777777779,66.66666666666669 71.79933073617381,68.79268573536163 74.52340867985052,74.52340867985055 68.7926857353616,71.79933073617383 66.66666666666663,77.77777777777779 64.54064759797171,71.79933073617381 58.80992465348278,74.5234086798505 61.534002597159514,68.79268573536159 55.55555555555556,66.66666666666661 61.534002597159535,64.5406475979717 58.80992465348285,58.80992465348277 64.54064759797176,61.53400259715951" fill="none" stroke="rgb(55, 91, 210)" stroke-width="4"></polygon><polygon points="437.58537147072326,56.40133852765238 437.2617043399253,62.73829566007474 443.59866147234766,62.4146285292768 438.8888888888889,66.66666666666669 443.59866147234766,70.91870480405657 437.2617043399253,70.59503767325862 437.5853714707232,76.93199480568099 433.33333333333337,72.22222222222223 429.0812951959434,76.93199480568096 429.40496232674144,70.59503767325859 423.068005194319,70.91870480405652 427.7777777777778,66.66666666666664 423.0680051943191,62.414628529276726 429.40496232674144,62.73829566007472 429.08129519594354,56.40133852765235 433.3333333333334,61.111111111111114" fill="none" stroke="rgb(224, 224, 224)" stroke-width="4"></polygon><polygon points="104.2520381373899,56.40133852765238 103.92837100659195,62.73829566007474 110.26532813901431,62.4146285292768 105.55555555555557,66.66666666666669 110.2653281390143,70.91870480405657 103.92837100659193,70.59503767325862 104.25203813738987,76.93199480568099 100,72.22222222222223 95.74796186261008,76.93199480568096 96.07162899340807,70.59503767325859 89.7346718609857,70.91870480405652 94.44444444444446,66.66666666666664 89.73467186098574,62.414628529276726 96.07162899340811,62.73829566007472 95.7479618626102,56.40133852765235 100.00000000000006,61.111111111111114" fill="none" stroke="rgb(70, 103, 211)" stroke-width="4"></polygon><polygon points="400.00000000000006,55.55555555555556 402.126019068695,61.53400259715952 407.8567420131839,58.80992465348282 405.1326640695072,64.54064759797174 411.11111111111114,66.66666666666669 405.1326640695072,68.79268573536163 407.8567420131839,74.52340867985055 402.126019068695,71.79933073617383 400,77.77777777777779 397.8739809313051,71.79933073617381 392.14325798681614,74.5234086798505 394.8673359304929,68.79268573536159 388.88888888888897,66.66666666666661 394.8673359304929,64.5406475979717 392.14325798681625,58.80992465348277 397.87398093130514,61.53400259715951" fill="none" stroke="rgb(209, 212, 223)" stroke-width="4"></polygon><polygon points="133.33333333333334,55.55555555555556 135.4593524020283,61.53400259715952 141.1900753465172,58.80992465348282 138.4659974028405,64.54064759797174 144.44444444444446,66.66666666666669 138.4659974028405,68.79268573536163 141.19007534651718,74.52340867985055 135.45935240202826,71.79933073617383 133.33333333333331,77.77777777777779 131.20731426463837,71.79933073617381 125.47659132014945,74.5234086798505 128.20066926382617,68.79268573536159 122.22222222222223,66.66666666666661 128.2006692638262,64.5406475979717 125.47659132014952,58.80992465348277 131.20731426463843,61.53400259715951" fill="none" stroke="rgb(86, 115, 213)" stroke-width="4"></polygon><polygon points="370.9187048040566,56.40133852765238 370.5950376732586,62.73829566007474 376.931994805681,62.4146285292768 372.22222222222223,66.66666666666669 376.931994805681,70.91870480405657 370.5950376732586,70.59503767325862 370.9187048040565,76.93199480568099 366.6666666666667,72.22222222222223 362.41462852927674,76.93199480568096 362.73829566007475,70.59503767325859 356.40133852765234,70.91870480405652 361.11111111111114,66.66666666666664 356.4013385276524,62.414628529276726 362.73829566007475,62.73829566007472 362.41462852927685,56.40133852765235 366.66666666666674,61.111111111111114" fill="none" stroke="rgb(193, 200, 221)" stroke-width="4"></polygon><polygon points="170.91870480405655,56.40133852765238 170.5950376732586,62.73829566007474 176.93199480568097,62.4146285292768 172.2222222222222,66.66666666666669 176.93199480568094,70.91870480405657 170.5950376732586,70.59503767325862 170.91870480405652,76.93199480568099 166.66666666666663,72.22222222222223 162.41462852927674,76.93199480568096 162.7382956600747,70.59503767325859 156.40133852765234,70.91870480405652 161.11111111111111,66.66666666666664 156.40133852765237,62.414628529276726 162.73829566007475,62.73829566007472 162.41462852927683,56.40133852765235 166.66666666666669,61.111111111111114" fill="none" stroke="rgb(101, 127, 214)" stroke-width="4"></polygon><polygon points="333.33333333333337,55.55555555555556 335.45935240202834,61.53400259715952 341.19007534651723,58.80992465348282 338.4659974028405,64.54064759797174 344.44444444444446,66.66666666666669 338.4659974028405,68.79268573536163 341.19007534651723,74.52340867985055 335.4593524020283,71.79933073617383 333.3333333333333,77.77777777777779 331.2073142646384,71.79933073617381 325.47659132014945,74.5234086798505 328.2006692638262,68.79268573536159 322.2222222222223,66.66666666666661 328.2006692638262,64.5406475979717 325.47659132014957,58.80992465348277 331.20731426463846,61.53400259715951" fill="none" stroke="rgb(178, 188, 220)" stroke-width="4"></polygon><polygon points="200,55.55555555555556 202.12601906869494,61.53400259715952 207.85674201318386,58.80992465348282 205.13266406950714,64.54064759797174 211.11111111111111,66.66666666666669 205.13266406950714,68.79268573536163 207.85674201318383,74.52340867985055 202.12601906869492,71.79933073617383 199.99999999999997,77.77777777777779 197.87398093130503,71.79933073617381 192.1432579868161,74.5234086798505 194.86733593049283,68.79268573536159 188.88888888888889,66.66666666666661 194.86733593049286,64.5406475979717 192.1432579868162,58.80992465348277 197.87398093130508,61.53400259715951" fill="none" stroke="rgb(116, 139, 215)" stroke-width="4"></polygon><polygon points="304.25203813738995,56.40133852765238 303.928371006592,62.73829566007474 310.26532813901434,62.4146285292768 305.5555555555556,66.66666666666669 310.26532813901434,70.91870480405657 303.928371006592,70.59503767325862 304.2520381373899,76.93199480568099 300.00000000000006,72.22222222222223 295.7479618626101,76.93199480568096 296.0716289934081,70.59503767325859 289.7346718609857,70.91870480405652 294.4444444444445,66.66666666666664 289.73467186098577,62.414628529276726 296.0716289934081,62.73829566007472 295.7479618626102,56.40133852765235 300.0000000000001,61.111111111111114" fill="none" stroke="rgb(163, 176, 219)" stroke-width="4"></polygon><polygon points="237.58537147072323,56.40133852765238 237.26170433992527,62.73829566007474 243.59866147234766,62.4146285292768 238.88888888888889,66.66666666666669 243.59866147234763,70.91870480405657 237.26170433992527,70.59503767325862 237.5853714707232,76.93199480568099 233.33333333333331,72.22222222222223 229.08129519594343,76.93199480568096 229.40496232674138,70.59503767325859 223.06800519431903,70.91870480405652 227.7777777777778,66.66666666666664 223.06800519431906,62.414628529276726 229.40496232674144,62.73829566007472 229.0812951959435,56.40133852765235 233.33333333333337,61.111111111111114" fill="none" stroke="rgb(132, 151, 216)" stroke-width="4"></polygon><polygon points="266.6666666666667,55.55555555555556 268.7926857353616,61.53400259715952 274.52340867985055,58.80992465348282 271.79933073617383,64.54064759797174 277.77777777777777,66.66666666666669 271.79933073617383,68.79268573536163 274.52340867985055,74.52340867985055 268.7926857353616,71.79933073617383 266.66666666666663,77.77777777777779 264.5406475979717,71.79933073617381 258.80992465348277,74.5234086798505 261.53400259715954,68.79268573536159 255.55555555555557,66.66666666666661 261.53400259715954,64.5406475979717 258.8099246534829,58.80992465348277 264.54064759797177,61.53400259715951" fill="none" stroke="rgb(147, 164, 218)" stroke-width="4"></polygon><polygon points="66.66666666666667,422.2222222222223 68.79268573536162,428.2006692638262 74.52340867985053,425.4765913201495 71.79933073617383,431.20731426463846 77.77777777777779,433.33333333333337 71.79933073617381,435.45935240202834 74.52340867985052,441.19007534651723 68.7926857353616,438.4659974028405 66.66666666666663,444.44444444444446 64.54064759797171,438.4659974028405 58.80992465348278,441.1900753465172 61.534002597159514,435.4593524020283 55.55555555555556,433.3333333333333 61.534002597159535,431.2073142646384 58.80992465348285,425.47659132014945 64.54064759797176,428.2006692638262" fill="none" stroke="rgb(55, 91, 210)" stroke-width="4"></polygon><polygon points="437.58537147072326,423.0680051943191 437.2617043399253,429.40496232674144 443.59866147234766,429.0812951959435 438.8888888888889,433.33333333333337 443.59866147234766,437.58537147072326 437.2617043399253,437.2617043399253 437.5853714707232,443.59866147234766 433.33333333333337,438.8888888888889 429.0812951959434,443.59866147234766 429.40496232674144,437.2617043399253 423.068005194319,437.5853714707232 427.7777777777778,433.33333333333337 423.0680051943191,429.0812951959434 429.40496232674144,429.40496232674144 429.08129519594354,423.068005194319 433.3333333333334,427.7777777777778" fill="none" stroke="rgb(224, 224, 224)" stroke-width="4"></polygon><polygon points="104.2520381373899,423.0680051943191 103.92837100659195,429.40496232674144 110.26532813901431,429.0812951959435 105.55555555555557,433.33333333333337 110.2653281390143,437.58537147072326 103.92837100659193,437.2617043399253 104.25203813738987,443.59866147234766 100,438.8888888888889 95.74796186261008,443.59866147234766 96.07162899340807,437.2617043399253 89.7346718609857,437.5853714707232 94.44444444444446,433.33333333333337 89.73467186098574,429.0812951959434 96.07162899340811,429.40496232674144 95.7479618626102,423.068005194319 100.00000000000006,427.7777777777778" fill="none" stroke="rgb(70, 103, 211)" stroke-width="4"></polygon><polygon points="400.00000000000006,422.2222222222223 402.126019068695,428.2006692638262 407.8567420131839,425.4765913201495 405.1326640695072,431.20731426463846 411.11111111111114,433.33333333333337 405.1326640695072,435.45935240202834 407.8567420131839,441.19007534651723 402.126019068695,438.4659974028405 400,444.44444444444446 397.8739809313051,438.4659974028405 392.14325798681614,441.1900753465172 394.8673359304929,435.4593524020283 388.88888888888897,433.3333333333333 394.8673359304929,431.2073142646384 392.14325798681625,425.47659132014945 397.87398093130514,428.2006692638262" fill="none" stroke="rgb(209, 212, 223)" stroke-width="4"></polygon><polygon points="133.33333333333334,422.2222222222223 135.4593524020283,428.2006692638262 141.1900753465172,425.4765913201495 138.4659974028405,431.20731426463846 144.44444444444446,433.33333333333337 138.4659974028405,435.45935240202834 141.19007534651718,441.19007534651723 135.45935240202826,438.4659974028405 133.33333333333331,444.44444444444446 131.20731426463837,438.4659974028405 125.47659132014945,441.1900753465172 128.20066926382617,435.4593524020283 122.22222222222223,433.3333333333333 128.2006692638262,431.2073142646384 125.47659132014952,425.47659132014945 131.20731426463843,428.2006692638262" fill="none" stroke="rgb(86, 115, 213)" stroke-width="4"></polygon><polygon points="370.9187048040566,423.0680051943191 370.5950376732586,429.40496232674144 376.931994805681,429.0812951959435 372.22222222222223,433.33333333333337 376.931994805681,437.58537147072326 370.5950376732586,437.2617043399253 370.9187048040565,443.59866147234766 366.6666666666667,438.8888888888889 362.41462852927674,443.59866147234766 362.73829566007475,437.2617043399253 356.40133852765234,437.5853714707232 361.11111111111114,433.33333333333337 356.4013385276524,429.0812951959434 362.73829566007475,429.40496232674144 362.41462852927685,423.068005194319 366.66666666666674,427.7777777777778" fill="none" stroke="rgb(193, 200, 221)" stroke-width="4"></polygon><polygon points="170.91870480405655,423.0680051943191 170.5950376732586,429.40496232674144 176.93199480568097,429.0812951959435 172.2222222222222,433.33333333333337 176.93199480568094,437.58537147072326 170.5950376732586,437.2617043399253 170.91870480405652,443.59866147234766 166.66666666666663,438.8888888888889 162.41462852927674,443.59866147234766 162.7382956600747,437.2617043399253 156.40133852765234,437.5853714707232 161.11111111111111,433.33333333333337 156.40133852765237,429.0812951959434 162.73829566007475,429.40496232674144 162.41462852927683,423.068005194319 166.66666666666669,427.7777777777778" fill="none" stroke="rgb(101, 127, 214)" stroke-width="4"></polygon><polygon points="333.33333333333337,422.2222222222223 335.45935240202834,428.2006692638262 341.19007534651723,425.4765913201495 338.4659974028405,431.20731426463846 344.44444444444446,433.33333333333337 338.4659974028405,435.45935240202834 341.19007534651723,441.19007534651723 335.4593524020283,438.4659974028405 333.3333333333333,444.44444444444446 331.2073142646384,438.4659974028405 325.47659132014945,441.1900753465172 328.2006692638262,435.4593524020283 322.2222222222223,433.3333333333333 328.2006692638262,431.2073142646384 325.47659132014957,425.47659132014945 331.20731426463846,428.2006692638262" fill="none" stroke="rgb(178, 188, 220)" stroke-width="4"></polygon><polygon points="200,422.2222222222223 202.12601906869494,428.2006692638262 207.85674201318386,425.4765913201495 205.13266406950714,431.20731426463846 211.11111111111111,433.33333333333337 205.13266406950714,435.45935240202834 207.85674201318383,441.19007534651723 202.12601906869492,438.4659974028405 199.99999999999997,444.44444444444446 197.87398093130503,438.4659974028405 192.1432579868161,441.1900753465172 194.86733593049283,435.4593524020283 188.88888888888889,433.3333333333333 194.86733593049286,431.2073142646384 192.1432579868162,425.47659132014945 197.87398093130508,428.2006692638262" fill="none" stroke="rgb(116, 139, 215)" stroke-width="4"></polygon><polygon points="304.25203813738995,423.0680051943191 303.928371006592,429.40496232674144 310.26532813901434,429.0812951959435 305.5555555555556,433.33333333333337 310.26532813901434,437.58537147072326 303.928371006592,437.2617043399253 304.2520381373899,443.59866147234766 300.00000000000006,438.8888888888889 295.7479618626101,443.59866147234766 296.0716289934081,437.2617043399253 289.7346718609857,437.5853714707232 294.4444444444445,433.33333333333337 289.73467186098577,429.0812951959434 296.0716289934081,429.40496232674144 295.7479618626102,423.068005194319 300.0000000000001,427.7777777777778" fill="none" stroke="rgb(163, 176, 219)" stroke-width="4"></polygon><polygon points="237.58537147072323,423.0680051943191 237.26170433992527,429.40496232674144 243.59866147234766,429.0812951959435 238.88888888888889,433.33333333333337 243.59866147234763,437.58537147072326 237.26170433992527,437.2617043399253 237.5853714707232,443.59866147234766 233.33333333333331,438.8888888888889 229.08129519594343,443.59866147234766 229.40496232674138,437.2617043399253 223.06800519431903,437.5853714707232 227.7777777777778,433.33333333333337 223.06800519431906,429.0812951959434 229.40496232674144,429.40496232674144 229.0812951959435,423.068005194319 233.33333333333337,427.7777777777778" fill="none" stroke="rgb(132, 151, 216)" stroke-width="4"></polygon><polygon points="266.6666666666667,422.2222222222223 268.7926857353616,428.2006692638262 274.52340867985055,425.4765913201495 271.79933073617383,431.20731426463846 277.77777777777777,433.33333333333337 271.79933073617383,435.45935240202834 274.52340867985055,441.19007534651723 268.7926857353616,438.4659974028405 266.66666666666663,444.44444444444446 264.5406475979717,438.4659974028405 258.80992465348277,441.1900753465172 261.53400259715954,435.4593524020283 255.55555555555557,433.3333333333333 261.53400259715954,431.2073142646384 258.8099246534829,425.47659132014945 264.54064759797177,428.2006692638262" fill="none" stroke="rgb(147, 164, 218)" stroke-width="4"></polygon><polygon points="66.66666666666667,88.8888888888889 68.79268573536162,94.86733593049287 74.52340867985053,92.14325798681615 71.79933073617383,97.87398093130508 77.77777777777779,100.00000000000003 71.79933073617381,102.12601906869497 74.52340867985052,107.85674201318389 68.7926857353616,105.13266406950717 66.66666666666663,111.11111111111113 64.54064759797171,105.13266406950716 58.80992465348278,107.85674201318385 61.534002597159514,102.12601906869493 55.55555555555556,99.99999999999996 61.534002597159535,97.87398093130504 58.80992465348285,92.14325798681611 64.54064759797176,94.86733593049286" fill="none" stroke="rgb(55, 91, 210)" stroke-width="4"></polygon><polygon points="437.58537147072326,89.73467186098571 437.2617043399253,96.07162899340808 443.59866147234766,95.74796186261014 438.8888888888889,100.00000000000003 443.59866147234766,104.25203813738992 437.2617043399253,103.92837100659196 437.5853714707232,110.26532813901433 433.33333333333337,105.55555555555557 429.0812951959434,110.2653281390143 429.40496232674144,103.92837100659193 423.068005194319,104.25203813738986 427.7777777777778,99.99999999999999 423.0680051943191,95.74796186261007 429.40496232674144,96.07162899340805 429.08129519594354,89.73467186098569 433.3333333333334,94.44444444444446" fill="none" stroke="rgb(224, 224, 224)" stroke-width="4"></polygon><polygon points="104.2520381373899,89.73467186098571 103.92837100659195,96.07162899340808 110.26532813901431,95.74796186261014 105.55555555555557,100.00000000000003 110.2653281390143,104.25203813738992 103.92837100659193,103.92837100659196 104.25203813738987,110.26532813901433 100,105.55555555555557 95.74796186261008,110.2653281390143 96.07162899340807,103.92837100659193 89.7346718609857,104.25203813738986 94.44444444444446,99.99999999999999 89.73467186098574,95.74796186261007 96.07162899340811,96.07162899340805 95.7479618626102,89.73467186098569 100.00000000000006,94.44444444444446" fill="none" stroke="rgb(70, 103, 211)" stroke-width="4"></polygon><polygon points="400.00000000000006,88.8888888888889 402.126019068695,94.86733593049287 407.8567420131839,92.14325798681615 405.1326640695072,97.87398093130508 411.11111111111114,100.00000000000003 405.1326640695072,102.12601906869497 407.8567420131839,107.85674201318389 402.126019068695,105.13266406950717 400,111.11111111111113 397.8739809313051,105.13266406950716 392.14325798681614,107.85674201318385 394.8673359304929,102.12601906869493 388.88888888888897,99.99999999999996 394.8673359304929,97.87398093130504 392.14325798681625,92.14325798681611 397.87398093130514,94.86733593049286" fill="none" stroke="rgb(209, 212, 223)" stroke-width="4"></polygon><polygon points="133.33333333333334,88.8888888888889 135.4593524020283,94.86733593049287 141.1900753465172,92.14325798681615 138.4659974028405,97.87398093130508 144.44444444444446,100.00000000000003 138.4659974028405,102.12601906869497 141.19007534651718,107.85674201318389 135.45935240202826,105.13266406950717 133.33333333333331,111.11111111111113 131.20731426463837,105.13266406950716 125.47659132014945,107.85674201318385 128.20066926382617,102.12601906869493 122.22222222222223,99.99999999999996 128.2006692638262,97.87398093130504 125.47659132014952,92.14325798681611 131.20731426463843,94.86733593049286" fill="none" stroke="rgb(86, 115, 213)" stroke-width="4"></polygon><polygon points="370.9187048040566,89.73467186098571 370.5950376732586,96.07162899340808 376.931994805681,95.74796186261014 372.22222222222223,100.00000000000003 376.931994805681,104.25203813738992 370.5950376732586,103.92837100659196 370.9187048040565,110.26532813901433 366.6666666666667,105.55555555555557 362.41462852927674,110.2653281390143 362.73829566007475,103.92837100659193 356.40133852765234,104.25203813738986 361.11111111111114,99.99999999999999 356.4013385276524,95.74796186261007 362.73829566007475,96.07162899340805 362.41462852927685,89.73467186098569 366.66666666666674,94.44444444444446" fill="none" stroke="rgb(193, 200, 221)" stroke-width="4"></polygon><polygon points="170.91870480405655,89.73467186098571 170.5950376732586,96.07162899340808 176.93199480568097,95.74796186261014 172.2222222222222,100.00000000000003 176.93199480568094,104.25203813738992 170.5950376732586,103.92837100659196 170.91870480405652,110.26532813901433 166.66666666666663,105.55555555555557 162.41462852927674,110.2653281390143 162.7382956600747,103.92837100659193 156.40133852765234,104.25203813738986 161.11111111111111,99.99999999999999 156.40133852765237,95.74796186261007 162.73829566007475,96.07162899340805 162.41462852927683,89.73467186098569 166.66666666666669,94.44444444444446" fill="none" stroke="rgb(101, 127, 214)" stroke-width="4"></polygon><polygon points="333.33333333333337,88.8888888888889 335.45935240202834,94.86733593049287 341.19007534651723,92.14325798681615 338.4659974028405,97.87398093130508 344.44444444444446,100.00000000000003 338.4659974028405,102.12601906869497 341.19007534651723,107.85674201318389 335.4593524020283,105.13266406950717 333.3333333333333,111.11111111111113 331.2073142646384,105.13266406950716 325.47659132014945,107.85674201318385 328.2006692638262,102.12601906869493 322.2222222222223,99.99999999999996 328.2006692638262,97.87398093130504 325.47659132014957,92.14325798681611 331.20731426463846,94.86733593049286" fill="none" stroke="rgb(178, 188, 220)" stroke-width="4"></polygon><polygon points="200,88.8888888888889 202.12601906869494,94.86733593049287 207.85674201318386,92.14325798681615 205.13266406950714,97.87398093130508 211.11111111111111,100.00000000000003 205.13266406950714,102.12601906869497 207.85674201318383,107.85674201318389 202.12601906869492,105.13266406950717 199.99999999999997,111.11111111111113 197.87398093130503,105.13266406950716 192.1432579868161,107.85674201318385 194.86733593049283,102.12601906869493 188.88888888888889,99.99999999999996 194.86733593049286,97.87398093130504 192.1432579868162,92.14325798681611 197.87398093130508,94.86733593049286" fill="none" stroke="rgb(116, 139, 215)" stroke-width="4"></polygon><polygon points="304.25203813738995,89.73467186098571 303.928371006592,96.07162899340808 310.26532813901434,95.74796186261014 305.5555555555556,100.00000000000003 310.26532813901434,104.25203813738992 303.928371006592,103.92837100659196 304.2520381373899,110.26532813901433 300.00000000000006,105.55555555555557 295.7479618626101,110.2653281390143 296.0716289934081,103.92837100659193 289.7346718609857,104.25203813738986 294.4444444444445,99.99999999999999 289.73467186098577,95.74796186261007 296.0716289934081,96.07162899340805 295.7479618626102,89.73467186098569 300.0000000000001,94.44444444444446" fill="none" stroke="rgb(163, 176, 219)" stroke-width="4"></polygon><polygon points="237.58537147072323,89.73467186098571 237.26170433992527,96.07162899340808 243.59866147234766,95.74796186261014 238.88888888888889,100.00000000000003 243.59866147234763,104.25203813738992 237.26170433992527,103.92837100659196 237.5853714707232,110.26532813901433 233.33333333333331,105.55555555555557 229.08129519594343,110.2653281390143 229.40496232674138,103.92837100659193 223.06800519431903,104.25203813738986 227.7777777777778,99.99999999999999 223.06800519431906,95.74796186261007 229.40496232674144,96.07162899340805 229.0812951959435,89.73467186098569 233.33333333333337,94.44444444444446" fill="none" stroke="rgb(132, 151, 216)" stroke-width="4"></polygon><polygon points="266.6666666666667,88.8888888888889 268.7926857353616,94.86733593049287 274.52340867985055,92.14325798681615 271.79933073617383,97.87398093130508 277.77777777777777,100.00000000000003 271.79933073617383,102.12601906869497 274.52340867985055,107.85674201318389 268.7926857353616,105.13266406950717 266.66666666666663,111.11111111111113 264.5406475979717,105.13266406950716 258.80992465348277,107.85674201318385 261.53400259715954,102.12601906869493 255.55555555555557,99.99999999999996 261.53400259715954,97.87398093130504 258.8099246534829,92.14325798681611 264.54064759797177,94.86733593049286" fill="none" stroke="rgb(147, 164, 218)" stroke-width="4"></polygon><polygon points="66.66666666666667,388.88888888888897 68.79268573536162,394.8673359304929 74.52340867985053,392.1432579868162 71.79933073617383,397.87398093130514 77.77777777777779,400.00000000000006 71.79933073617381,402.12601906869503 74.52340867985052,407.8567420131839 68.7926857353616,405.1326640695072 66.66666666666663,411.11111111111114 64.54064759797171,405.1326640695072 58.80992465348278,407.85674201318386 61.534002597159514,402.126019068695 55.55555555555556,400 61.534002597159535,397.8739809313051 58.80992465348285,392.14325798681614 64.54064759797176,394.8673359304929" fill="none" stroke="rgb(55, 91, 210)" stroke-width="4"></polygon><polygon points="437.58537147072326,389.73467186098577 437.2617043399253,396.0716289934081 443.59866147234766,395.74796186261017 438.8888888888889,400.00000000000006 443.59866147234766,404.25203813738995 437.2617043399253,403.928371006592 437.5853714707232,410.26532813901434 433.33333333333337,405.5555555555556 429.0812951959434,410.26532813901434 429.40496232674144,403.928371006592 423.068005194319,404.2520381373899 427.7777777777778,400.00000000000006 423.0680051943191,395.7479618626101 429.40496232674144,396.0716289934081 429.08129519594354,389.7346718609857 433.3333333333334,394.4444444444445" fill="none" stroke="rgb(224, 224, 224)" stroke-width="4"></polygon><polygon points="104.2520381373899,389.73467186098577 103.92837100659195,396.0716289934081 110.26532813901431,395.74796186261017 105.55555555555557,400.00000000000006 110.2653281390143,404.25203813738995 103.92837100659193,403.928371006592 104.25203813738987,410.26532813901434 100,405.5555555555556 95.74796186261008,410.26532813901434 96.07162899340807,403.928371006592 89.7346718609857,404.2520381373899 94.44444444444446,400.00000000000006 89.73467186098574,395.7479618626101 96.07162899340811,396.0716289934081 95.7479618626102,389.7346718609857 100.00000000000006,394.4444444444445" fill="none" stroke="rgb(70, 103, 211)" stroke-width="4"></polygon><polygon points="400.00000000000006,388.88888888888897 402.126019068695,394.8673359304929 407.8567420131839,392.1432579868162 405.1326640695072,397.87398093130514 411.11111111111114,400.00000000000006 405.1326640695072,402.12601906869503 407.8567420131839,407.8567420131839 402.126019068695,405.1326640695072 400,411.11111111111114 397.8739809313051,405.1326640695072 392.14325798681614,407.85674201318386 394.8673359304929,402.126019068695 388.88888888888897,400 394.8673359304929,397.8739809313051 392.14325798681625,392.14325798681614 397.87398093130514,394.8673359304929" fill="none" stroke="rgb(209, 212, 223)" stroke-width="4"></polygon><polygon points="133.33333333333334,388.88888888888897 135.4593524020283,394.8673359304929 141.1900753465172,392.1432579868162 138.4659974028405,397.87398093130514 144.44444444444446,400.00000000000006 138.4659974028405,402.12601906869503 141.19007534651718,407.8567420131839 135.45935240202826,405.1326640695072 133.33333333333331,411.11111111111114 131.20731426463837,405.1326640695072 125.47659132014945,407.85674201318386 128.20066926382617,402.126019068695 122.22222222222223,400 128.2006692638262,397.8739809313051 125.47659132014952,392.14325798681614 131.20731426463843,394.8673359304929" fill="none" stroke="rgb(86, 115, 213)" stroke-width="4"></polygon><polygon points="370.9187048040566,389.73467186098577 370.5950376732586,396.0716289934081 376.931994805681,395.74796186261017 372.22222222222223,400.00000000000006 376.931994805681,404.25203813738995 370.5950376732586,403.928371006592 370.9187048040565,410.26532813901434 366.6666666666667,405.5555555555556 362.41462852927674,410.26532813901434 362.73829566007475,403.928371006592 356.40133852765234,404.2520381373899 361.11111111111114,400.00000000000006 356.4013385276524,395.7479618626101 362.73829566007475,396.0716289934081 362.41462852927685,389.7346718609857 366.66666666666674,394.4444444444445" fill="none" stroke="rgb(193, 200, 221)" stroke-width="4"></polygon><polygon points="170.91870480405655,389.73467186098577 170.5950376732586,396.0716289934081 176.93199480568097,395.74796186261017 172.2222222222222,400.00000000000006 176.93199480568094,404.25203813738995 170.5950376732586,403.928371006592 170.91870480405652,410.26532813901434 166.66666666666663,405.5555555555556 162.41462852927674,410.26532813901434 162.7382956600747,403.928371006592 156.40133852765234,404.2520381373899 161.11111111111111,400.00000000000006 156.40133852765237,395.7479618626101 162.73829566007475,396.0716289934081 162.41462852927683,389.7346718609857 166.66666666666669,394.4444444444445" fill="none" stroke="rgb(101, 127, 214)" stroke-width="4"></polygon><polygon points="333.33333333333337,388.88888888888897 335.45935240202834,394.8673359304929 341.19007534651723,392.1432579868162 338.4659974028405,397.87398093130514 344.44444444444446,400.00000000000006 338.4659974028405,402.12601906869503 341.19007534651723,407.8567420131839 335.4593524020283,405.1326640695072 333.3333333333333,411.11111111111114 331.2073142646384,405.1326640695072 325.47659132014945,407.85674201318386 328.2006692638262,402.126019068695 322.2222222222223,400 328.2006692638262,397.8739809313051 325.47659132014957,392.14325798681614 331.20731426463846,394.8673359304929" fill="none" stroke="rgb(178, 188, 220)" stroke-width="4"></polygon><polygon points="200,388.88888888888897 202.12601906869494,394.8673359304929 207.85674201318386,392.1432579868162 205.13266406950714,397.87398093130514 211.11111111111111,400.00000000000006 205.13266406950714,402.12601906869503 207.85674201318383,407.8567420131839 202.12601906869492,405.1326640695072 199.99999999999997,411.11111111111114 197.87398093130503,405.1326640695072 192.1432579868161,407.85674201318386 194.86733593049283,402.126019068695 188.88888888888889,400 194.86733593049286,397.8739809313051 192.1432579868162,392.14325798681614 197.87398093130508,394.8673359304929" fill="none" stroke="rgb(116, 139, 215)" stroke-width="4"></polygon><polygon points="304.25203813738995,389.73467186098577 303.928371006592,396.0716289934081 310.26532813901434,395.74796186261017 305.5555555555556,400.00000000000006 310.26532813901434,404.25203813738995 303.928371006592,403.928371006592 304.2520381373899,410.26532813901434 300.00000000000006,405.5555555555556 295.7479618626101,410.26532813901434 296.0716289934081,403.928371006592 289.7346718609857,404.2520381373899 294.4444444444445,400.00000000000006 289.73467186098577,395.7479618626101 296.0716289934081,396.0716289934081 295.7479618626102,389.7346718609857 300.0000000000001,394.4444444444445" fill="none" stroke="rgb(163, 176, 219)" stroke-width="4"></polygon><polygon points="237.58537147072323,389.73467186098577 237.26170433992527,396.0716289934081 243.59866147234766,395.74796186261017 238.88888888888889,400.00000000000006 243.59866147234763,404.25203813738995 237.26170433992527,403.928371006592 237.5853714707232,410.26532813901434 233.33333333333331,405.5555555555556 229.08129519594343,410.26532813901434 229.40496232674138,403.928371006592 223.06800519431903,404.2520381373899 227.7777777777778,400.00000000000006 223.06800519431906,395.7479618626101 229.40496232674144,396.0716289934081 229.0812951959435,389.7346718609857 233.33333333333337,394.4444444444445" fill="none" stroke="rgb(132, 151, 216)" stroke-width="4"></polygon><polygon points="266.6666666666667,388.88888888888897 268.7926857353616,394.8673359304929 274.52340867985055,392.1432579868162 271.79933073617383,397.87398093130514 277.77777777777777,400.00000000000006 271.79933073617383,402.12601906869503 274.52340867985055,407.8567420131839 268.7926857353616,405.1326640695072 266.66666666666663,411.11111111111114 264.5406475979717,405.1326640695072 258.80992465348277,407.85674201318386 261.53400259715954,402.126019068695 255.55555555555557,400 261.53400259715954,397.8739809313051 258.8099246534829,392.14325798681614 264.54064759797177,394.8673359304929" fill="none" stroke="rgb(147, 164, 218)" stroke-width="4"></polygon><polygon points="66.66666666666667,122.22222222222223 68.79268573536162,128.2006692638262 74.52340867985053,125.47659132014948 71.79933073617383,131.2073142646384 77.77777777777779,133.33333333333337 71.79933073617381,135.4593524020283 74.52340867985052,141.19007534651723 68.7926857353616,138.4659974028405 66.66666666666663,144.44444444444446 64.54064759797171,138.4659974028405 58.80992465348278,141.19007534651718 61.534002597159514,135.45935240202826 55.55555555555556,133.3333333333333 61.534002597159535,131.20731426463837 58.80992465348285,125.47659132014944 64.54064759797176,128.20066926382617" fill="none" stroke="rgb(55, 91, 210)" stroke-width="4"></polygon><polygon points="437.58537147072326,123.06800519431904 437.2617043399253,129.4049623267414 443.59866147234766,129.08129519594348 438.8888888888889,133.33333333333334 443.59866147234766,137.58537147072326 437.2617043399253,137.26170433992527 437.5853714707232,143.59866147234766 433.33333333333337,138.88888888888889 429.0812951959434,143.59866147234763 429.40496232674144,137.26170433992525 423.068005194319,137.58537147072317 427.7777777777778,133.33333333333331 423.0680051943191,129.0812951959434 429.40496232674144,129.40496232674138 429.08129519594354,123.06800519431901 433.3333333333334,127.77777777777779" fill="none" stroke="rgb(224, 224, 224)" stroke-width="4"></polygon><polygon points="104.2520381373899,123.06800519431904 103.92837100659195,129.4049623267414 110.26532813901431,129.08129519594348 105.55555555555557,133.33333333333334 110.2653281390143,137.58537147072326 103.92837100659193,137.26170433992527 104.25203813738987,143.59866147234766 100,138.88888888888889 95.74796186261008,143.59866147234763 96.07162899340807,137.26170433992525 89.7346718609857,137.58537147072317 94.44444444444446,133.33333333333331 89.73467186098574,129.0812951959434 96.07162899340811,129.40496232674138 95.7479618626102,123.06800519431901 100.00000000000006,127.77777777777779" fill="none" stroke="rgb(70, 103, 211)" stroke-width="4"></polygon><polygon points="400.00000000000006,122.22222222222223 402.126019068695,128.2006692638262 407.8567420131839,125.47659132014948 405.1326640695072,131.2073142646384 411.11111111111114,133.33333333333337 405.1326640695072,135.4593524020283 407.8567420131839,141.19007534651723 402.126019068695,138.4659974028405 400,144.44444444444446 397.8739809313051,138.4659974028405 392.14325798681614,141.19007534651718 394.8673359304929,135.45935240202826 388.88888888888897,133.3333333333333 394.8673359304929,131.20731426463837 392.14325798681625,125.47659132014944 397.87398093130514,128.20066926382617" fill="none" stroke="rgb(209, 212, 223)" stroke-width="4"></polygon><polygon points="133.33333333333334,122.22222222222223 135.4593524020283,128.2006692638262 141.1900753465172,125.47659132014948 138.4659974028405,131.2073142646384 144.44444444444446,133.33333333333337 138.4659974028405,135.4593524020283 141.19007534651718,141.19007534651723 135.45935240202826,138.4659974028405 133.33333333333331,144.44444444444446 131.20731426463837,138.4659974028405 125.47659132014945,141.19007534651718 128.20066926382617,135.45935240202826 122.22222222222223,133.3333333333333 128.2006692638262,131.20731426463837 125.47659132014952,125.47659132014944 131.20731426463843,128.20066926382617" fill="none" stroke="rgb(86, 115, 213)" stroke-width="4"></polygon><polygon points="370.9187048040566,123.06800519431904 370.5950376732586,129.4049623267414 376.931994805681,129.08129519594348 372.22222222222223,133.33333333333334 376.931994805681,137.58537147072326 370.5950376732586,137.26170433992527 370.9187048040565,143.59866147234766 366.6666666666667,138.88888888888889 362.41462852927674,143.59866147234763 362.73829566007475,137.26170433992525 356.40133852765234,137.58537147072317 361.11111111111114,133.33333333333331 356.4013385276524,129.0812951959434 362.73829566007475,129.40496232674138 362.41462852927685,123.06800519431901 366.66666666666674,127.77777777777779" fill="none" stroke="rgb(193, 200, 221)" stroke-width="4"></polygon><polygon points="170.91870480405655,123.06800519431904 170.5950376732586,129.4049623267414 176.93199480568097,129.08129519594348 172.2222222222222,133.33333333333334 176.93199480568094,137.58537147072326 170.5950376732586,137.26170433992527 170.91870480405652,143.59866147234766 166.66666666666663,138.88888888888889 162.41462852927674,143.59866147234763 162.7382956600747,137.26170433992525 156.40133852765234,137.58537147072317 161.11111111111111,133.33333333333331 156.40133852765237,129.0812951959434 162.73829566007475,129.40496232674138 162.41462852927683,123.06800519431901 166.66666666666669,127.77777777777779" fill="none" stroke="rgb(101, 127, 214)" stroke-width="4"></polygon><polygon points="333.33333333333337,122.22222222222223 335.45935240202834,128.2006692638262 341.19007534651723,125.47659132014948 338.4659974028405,131.2073142646384 344.44444444444446,133.33333333333337 338.4659974028405,135.4593524020283 341.19007534651723,141.19007534651723 335.4593524020283,138.4659974028405 333.3333333333333,144.44444444444446 331.2073142646384,138.4659974028405 325.47659132014945,141.19007534651718 328.2006692638262,135.45935240202826 322.2222222222223,133.3333333333333 328.2006692638262,131.20731426463837 325.47659132014957,125.47659132014944 331.20731426463846,128.20066926382617" fill="none" stroke="rgb(178, 188, 220)" stroke-width="4"></polygon><polygon points="200,122.22222222222223 202.12601906869494,128.2006692638262 207.85674201318386,125.47659132014948 205.13266406950714,131.2073142646384 211.11111111111111,133.33333333333337 205.13266406950714,135.4593524020283 207.85674201318383,141.19007534651723 202.12601906869492,138.4659974028405 199.99999999999997,144.44444444444446 197.87398093130503,138.4659974028405 192.1432579868161,141.19007534651718 194.86733593049283,135.45935240202826 188.88888888888889,133.3333333333333 194.86733593049286,131.20731426463837 192.1432579868162,125.47659132014944 197.87398093130508,128.20066926382617" fill="none" stroke="rgb(116, 139, 215)" stroke-width="4"></polygon><polygon points="304.25203813738995,123.06800519431904 303.928371006592,129.4049623267414 310.26532813901434,129.08129519594348 305.5555555555556,133.33333333333334 310.26532813901434,137.58537147072326 303.928371006592,137.26170433992527 304.2520381373899,143.59866147234766 300.00000000000006,138.88888888888889 295.7479618626101,143.59866147234763 296.0716289934081,137.26170433992525 289.7346718609857,137.58537147072317 294.4444444444445,133.33333333333331 289.73467186098577,129.0812951959434 296.0716289934081,129.40496232674138 295.7479618626102,123.06800519431901 300.0000000000001,127.77777777777779" fill="none" stroke="rgb(163, 176, 219)" stroke-width="4"></polygon><polygon points="237.58537147072323,123.06800519431904 237.26170433992527,129.4049623267414 243.59866147234766,129.08129519594348 238.88888888888889,133.33333333333334 243.59866147234763,137.58537147072326 237.26170433992527,137.26170433992527 237.5853714707232,143.59866147234766 233.33333333333331,138.88888888888889 229.08129519594343,143.59866147234763 229.40496232674138,137.26170433992525 223.06800519431903,137.58537147072317 227.7777777777778,133.33333333333331 223.06800519431906,129.0812951959434 229.40496232674144,129.40496232674138 229.0812951959435,123.06800519431901 233.33333333333337,127.77777777777779" fill="none" stroke="rgb(132, 151, 216)" stroke-width="4"></polygon><polygon points="266.6666666666667,122.22222222222223 268.7926857353616,128.2006692638262 274.52340867985055,125.47659132014948 271.79933073617383,131.2073142646384 277.77777777777777,133.33333333333337 271.79933073617383,135.4593524020283 274.52340867985055,141.19007534651723 268.7926857353616,138.4659974028405 266.66666666666663,144.44444444444446 264.5406475979717,138.4659974028405 258.80992465348277,141.19007534651718 261.53400259715954,135.45935240202826 255.55555555555557,133.3333333333333 261.53400259715954,131.20731426463837 258.8099246534829,125.47659132014944 264.54064759797177,128.20066926382617" fill="none" stroke="rgb(147, 164, 218)" stroke-width="4"></polygon><polygon points="66.66666666666667,355.5555555555556 68.79268573536162,361.53400259715954 74.52340867985053,358.8099246534828 71.79933073617383,364.54064759797177 77.77777777777779,366.6666666666667 71.79933073617381,368.79268573536166 74.52340867985052,374.52340867985055 68.7926857353616,371.79933073617383 66.66666666666663,377.77777777777777 64.54064759797171,371.79933073617383 58.80992465348278,374.5234086798505 61.534002597159514,368.7926857353616 55.55555555555556,366.66666666666663 61.534002597159535,364.5406475979717 58.80992465348285,358.80992465348277 64.54064759797176,361.53400259715954" fill="none" stroke="rgb(55, 91, 210)" stroke-width="4"></polygon><polygon points="437.58537147072326,356.4013385276524 437.2617043399253,362.73829566007475 443.59866147234766,362.4146285292768 438.8888888888889,366.6666666666667 443.59866147234766,370.9187048040566 437.2617043399253,370.5950376732586 437.5853714707232,376.931994805681 433.33333333333337,372.22222222222223 429.0812951959434,376.931994805681 429.40496232674144,370.5950376732586 423.068005194319,370.9187048040565 427.7777777777778,366.6666666666667 423.0680051943191,362.41462852927674 429.40496232674144,362.73829566007475 429.08129519594354,356.40133852765234 433.3333333333334,361.11111111111114" fill="none" stroke="rgb(224, 224, 224)" stroke-width="4"></polygon><polygon points="104.2520381373899,356.4013385276524 103.92837100659195,362.73829566007475 110.26532813901431,362.4146285292768 105.55555555555557,366.6666666666667 110.2653281390143,370.9187048040566 103.92837100659193,370.5950376732586 104.25203813738987,376.931994805681 100,372.22222222222223 95.74796186261008,376.931994805681 96.07162899340807,370.5950376732586 89.7346718609857,370.9187048040565 94.44444444444446,366.6666666666667 89.73467186098574,362.41462852927674 96.07162899340811,362.73829566007475 95.7479618626102,356.40133852765234 100.00000000000006,361.11111111111114" fill="none" stroke="rgb(70, 103, 211)" stroke-width="4"></polygon><polygon points="400.00000000000006,355.5555555555556 402.126019068695,361.53400259715954 407.8567420131839,358.8099246534828 405.1326640695072,364.54064759797177 411.11111111111114,366.6666666666667 405.1326640695072,368.79268573536166 407.8567420131839,374.52340867985055 402.126019068695,371.79933073617383 400,377.77777777777777 397.8739809313051,371.79933073617383 392.14325798681614,374.5234086798505 394.8673359304929,368.7926857353616 388.88888888888897,366.66666666666663 394.8673359304929,364.5406475979717 392.14325798681625,358.80992465348277 397.87398093130514,361.53400259715954" fill="none" stroke="rgb(209, 212, 223)" stroke-width="4"></polygon><polygon points="133.33333333333334,355.5555555555556 135.4593524020283,361.53400259715954 141.1900753465172,358.8099246534828 138.4659974028405,364.54064759797177 144.44444444444446,366.6666666666667 138.4659974028405,368.79268573536166 141.19007534651718,374.52340867985055 135.45935240202826,371.79933073617383 133.33333333333331,377.77777777777777 131.20731426463837,371.79933073617383 125.47659132014945,374.5234086798505 128.20066926382617,368.7926857353616 122.22222222222223,366.66666666666663 128.2006692638262,364.5406475979717 125.47659132014952,358.80992465348277 131.20731426463843,361.53400259715954" fill="none" stroke="rgb(86, 115, 213)" stroke-width="4"></polygon><polygon points="370.9187048040566,356.4013385276524 370.5950376732586,362.73829566007475 376.931994805681,362.4146285292768 372.22222222222223,366.6666666666667 376.931994805681,370.9187048040566 370.5950376732586,370.5950376732586 370.9187048040565,376.931994805681 366.6666666666667,372.22222222222223 362.41462852927674,376.931994805681 362.73829566007475,370.5950376732586 356.40133852765234,370.9187048040565 361.11111111111114,366.6666666666667 356.4013385276524,362.41462852927674 362.73829566007475,362.73829566007475 362.41462852927685,356.40133852765234 366.66666666666674,361.11111111111114" fill="none" stroke="rgb(193, 200, 221)" stroke-width="4"></polygon><polygon points="170.91870480405655,356.4013385276524 170.5950376732586,362.73829566007475 176.93199480568097,362.4146285292768 172.2222222222222,366.6666666666667 176.93199480568094,370.9187048040566 170.5950376732586,370.5950376732586 170.91870480405652,376.931994805681 166.66666666666663,372.22222222222223 162.41462852927674,376.931994805681 162.7382956600747,370.5950376732586 156.40133852765234,370.9187048040565 161.11111111111111,366.6666666666667 156.40133852765237,362.41462852927674 162.73829566007475,362.73829566007475 162.41462852927683,356.40133852765234 166.66666666666669,361.11111111111114" fill="none" stroke="rgb(101, 127, 214)" stroke-width="4"></polygon><polygon points="333.33333333333337,355.5555555555556 335.45935240202834,361.53400259715954 341.19007534651723,358.8099246534828 338.4659974028405,364.54064759797177 344.44444444444446,366.6666666666667 338.4659974028405,368.79268573536166 341.19007534651723,374.52340867985055 335.4593524020283,371.79933073617383 333.3333333333333,377.77777777777777 331.2073142646384,371.79933073617383 325.47659132014945,374.5234086798505 328.2006692638262,368.7926857353616 322.2222222222223,366.66666666666663 328.2006692638262,364.5406475979717 325.47659132014957,358.80992465348277 331.20731426463846,361.53400259715954" fill="none" stroke="rgb(178, 188, 220)" stroke-width="4"></polygon><polygon points="200,355.5555555555556 202.12601906869494,361.53400259715954 207.85674201318386,358.8099246534828 205.13266406950714,364.54064759797177 211.11111111111111,366.6666666666667 205.13266406950714,368.79268573536166 207.85674201318383,374.52340867985055 202.12601906869492,371.79933073617383 199.99999999999997,377.77777777777777 197.87398093130503,371.79933073617383 192.1432579868161,374.5234086798505 194.86733593049283,368.7926857353616 188.88888888888889,366.66666666666663 194.86733593049286,364.5406475979717 192.1432579868162,358.80992465348277 197.87398093130508,361.53400259715954" fill="none" stroke="rgb(116, 139, 215)" stroke-width="4"></polygon><polygon points="304.25203813738995,356.4013385276524 303.928371006592,362.73829566007475 310.26532813901434,362.4146285292768 305.5555555555556,366.6666666666667 310.26532813901434,370.9187048040566 303.928371006592,370.5950376732586 304.2520381373899,376.931994805681 300.00000000000006,372.22222222222223 295.7479618626101,376.931994805681 296.0716289934081,370.5950376732586 289.7346718609857,370.9187048040565 294.4444444444445,366.6666666666667 289.73467186098577,362.41462852927674 296.0716289934081,362.73829566007475 295.7479618626102,356.40133852765234 300.0000000000001,361.11111111111114" fill="none" stroke="rgb(163, 176, 219)" stroke-width="4"></polygon><polygon points="237.58537147072323,356.4013385276524 237.26170433992527,362.73829566007475 243.59866147234766,362.4146285292768 238.88888888888889,366.6666666666667 243.59866147234763,370.9187048040566 237.26170433992527,370.5950376732586 237.5853714707232,376.931994805681 233.33333333333331,372.22222222222223 229.08129519594343,376.931994805681 229.40496232674138,370.5950376732586 223.06800519431903,370.9187048040565 227.7777777777778,366.6666666666667 223.06800519431906,362.41462852927674 229.40496232674144,362.73829566007475 229.0812951959435,356.40133852765234 233.33333333333337,361.11111111111114" fill="none" stroke="rgb(132, 151, 216)" stroke-width="4"></polygon><polygon points="266.6666666666667,355.5555555555556 268.7926857353616,361.53400259715954 274.52340867985055,358.8099246534828 271.79933073617383,364.54064759797177 277.77777777777777,366.6666666666667 271.79933073617383,368.79268573536166 274.52340867985055,374.52340867985055 268.7926857353616,371.79933073617383 266.66666666666663,377.77777777777777 264.5406475979717,371.79933073617383 258.80992465348277,374.5234086798505 261.53400259715954,368.7926857353616 255.55555555555557,366.66666666666663 261.53400259715954,364.5406475979717 258.8099246534829,358.80992465348277 264.54064759797177,361.53400259715954" fill="none" stroke="rgb(147, 164, 218)" stroke-width="4"></polygon><polygon points="66.66666666666667,155.55555555555554 68.79268573536162,161.5340025971595 74.52340867985053,158.8099246534828 71.79933073617383,164.5406475979717 77.77777777777779,166.66666666666669 71.79933073617381,168.7926857353616 74.52340867985052,174.52340867985055 68.7926857353616,171.7993307361738 66.66666666666663,177.77777777777777 64.54064759797171,171.7993307361738 58.80992465348278,174.5234086798505 61.534002597159514,168.79268573536157 55.55555555555556,166.6666666666666 61.534002597159535,164.54064759797168 58.80992465348285,158.80992465348274 64.54064759797176,161.53400259715949" fill="none" stroke="rgb(55, 91, 210)" stroke-width="4"></polygon><polygon points="437.58537147072326,156.40133852765237 437.2617043399253,162.73829566007473 443.59866147234766,162.4146285292768 438.8888888888889,166.66666666666666 443.59866147234766,170.91870480405657 437.2617043399253,170.5950376732586 437.5853714707232,176.93199480568097 433.33333333333337,172.2222222222222 429.0812951959434,176.93199480568094 429.40496232674144,170.59503767325856 423.068005194319,170.9187048040565 427.7777777777778,166.66666666666663 423.0680051943191,162.4146285292767 429.40496232674144,162.7382956600747 429.08129519594354,156.40133852765234 433.3333333333334,161.11111111111111" fill="none" stroke="rgb(224, 224, 224)" stroke-width="4"></polygon><polygon points="104.2520381373899,156.40133852765237 103.92837100659195,162.73829566007473 110.26532813901431,162.4146285292768 105.55555555555557,166.66666666666666 110.2653281390143,170.91870480405657 103.92837100659193,170.5950376732586 104.25203813738987,176.93199480568097 100,172.2222222222222 95.74796186261008,176.93199480568094 96.07162899340807,170.59503767325856 89.7346718609857,170.9187048040565 94.44444444444446,166.66666666666663 89.73467186098574,162.4146285292767 96.07162899340811,162.7382956600747 95.7479618626102,156.40133852765234 100.00000000000006,161.11111111111111" fill="none" stroke="rgb(70, 103, 211)" stroke-width="4"></polygon><polygon points="400.00000000000006,155.55555555555554 402.126019068695,161.5340025971595 407.8567420131839,158.8099246534828 405.1326640695072,164.5406475979717 411.11111111111114,166.66666666666669 405.1326640695072,168.7926857353616 407.8567420131839,174.52340867985055 402.126019068695,171.7993307361738 400,177.77777777777777 397.8739809313051,171.7993307361738 392.14325798681614,174.5234086798505 394.8673359304929,168.79268573536157 388.88888888888897,166.6666666666666 394.8673359304929,164.54064759797168 392.14325798681625,158.80992465348274 397.87398093130514,161.53400259715949" fill="none" stroke="rgb(209, 212, 223)" stroke-width="4"></polygon><polygon points="133.33333333333334,155.55555555555554 135.4593524020283,161.5340025971595 141.1900753465172,158.8099246534828 138.4659974028405,164.5406475979717 144.44444444444446,166.66666666666669 138.4659974028405,168.7926857353616 141.19007534651718,174.52340867985055 135.45935240202826,171.7993307361738 133.33333333333331,177.77777777777777 131.20731426463837,171.7993307361738 125.47659132014945,174.5234086798505 128.20066926382617,168.79268573536157 122.22222222222223,166.6666666666666 128.2006692638262,164.54064759797168 125.47659132014952,158.80992465348274 131.20731426463843,161.53400259715949" fill="none" stroke="rgb(86, 115, 213)" stroke-width="4"></polygon><polygon points="370.9187048040566,156.40133852765237 370.5950376732586,162.73829566007473 376.931994805681,162.4146285292768 372.22222222222223,166.66666666666666 376.931994805681,170.91870480405657 370.5950376732586,170.5950376732586 370.9187048040565,176.93199480568097 366.6666666666667,172.2222222222222 362.41462852927674,176.93199480568094 362.73829566007475,170.59503767325856 356.40133852765234,170.9187048040565 361.11111111111114,166.66666666666663 356.4013385276524,162.4146285292767 362.73829566007475,162.7382956600747 362.41462852927685,156.40133852765234 366.66666666666674,161.11111111111111" fill="none" stroke="rgb(193, 200, 221)" stroke-width="4"></polygon><polygon points="170.91870480405655,156.40133852765237 170.5950376732586,162.73829566007473 176.93199480568097,162.4146285292768 172.2222222222222,166.66666666666666 176.93199480568094,170.91870480405657 170.5950376732586,170.5950376732586 170.91870480405652,176.93199480568097 166.66666666666663,172.2222222222222 162.41462852927674,176.93199480568094 162.7382956600747,170.59503767325856 156.40133852765234,170.9187048040565 161.11111111111111,166.66666666666663 156.40133852765237,162.4146285292767 162.73829566007475,162.7382956600747 162.41462852927683,156.40133852765234 166.66666666666669,161.11111111111111" fill="none" stroke="rgb(101, 127, 214)" stroke-width="4"></polygon><polygon points="333.33333333333337,155.55555555555554 335.45935240202834,161.5340025971595 341.19007534651723,158.8099246534828 338.4659974028405,164.5406475979717 344.44444444444446,166.66666666666669 338.4659974028405,168.7926857353616 341.19007534651723,174.52340867985055 335.4593524020283,171.7993307361738 333.3333333333333,177.77777777777777 331.2073142646384,171.7993307361738 325.47659132014945,174.5234086798505 328.2006692638262,168.79268573536157 322.2222222222223,166.6666666666666 328.2006692638262,164.54064759797168 325.47659132014957,158.80992465348274 331.20731426463846,161.53400259715949" fill="none" stroke="rgb(178, 188, 220)" stroke-width="4"></polygon><polygon points="200,155.55555555555554 202.12601906869494,161.5340025971595 207.85674201318386,158.8099246534828 205.13266406950714,164.5406475979717 211.11111111111111,166.66666666666669 205.13266406950714,168.7926857353616 207.85674201318383,174.52340867985055 202.12601906869492,171.7993307361738 199.99999999999997,177.77777777777777 197.87398093130503,171.7993307361738 192.1432579868161,174.5234086798505 194.86733593049283,168.79268573536157 188.88888888888889,166.6666666666666 194.86733593049286,164.54064759797168 192.1432579868162,158.80992465348274 197.87398093130508,161.53400259715949" fill="none" stroke="rgb(116, 139, 215)" stroke-width="4"></polygon><polygon points="304.25203813738995,156.40133852765237 303.928371006592,162.73829566007473 310.26532813901434,162.4146285292768 305.5555555555556,166.66666666666666 310.26532813901434,170.91870480405657 303.928371006592,170.5950376732586 304.2520381373899,176.93199480568097 300.00000000000006,172.2222222222222 295.7479618626101,176.93199480568094 296.0716289934081,170.59503767325856 289.7346718609857,170.9187048040565 294.4444444444445,166.66666666666663 289.73467186098577,162.4146285292767 296.0716289934081,162.7382956600747 295.7479618626102,156.40133852765234 300.0000000000001,161.11111111111111" fill="none" stroke="rgb(163, 176, 219)" stroke-width="4"></polygon><polygon points="237.58537147072323,156.40133852765237 237.26170433992527,162.73829566007473 243.59866147234766,162.4146285292768 238.88888888888889,166.66666666666666 243.59866147234763,170.91870480405657 237.26170433992527,170.5950376732586 237.5853714707232,176.93199480568097 233.33333333333331,172.2222222222222 229.08129519594343,176.93199480568094 229.40496232674138,170.59503767325856 223.06800519431903,170.9187048040565 227.7777777777778,166.66666666666663 223.06800519431906,162.4146285292767 229.40496232674144,162.7382956600747 229.0812951959435,156.40133852765234 233.33333333333337,161.11111111111111" fill="none" stroke="rgb(132, 151, 216)" stroke-width="4"></polygon><polygon points="266.6666666666667,155.55555555555554 268.7926857353616,161.5340025971595 274.52340867985055,158.8099246534828 271.79933073617383,164.5406475979717 277.77777777777777,166.66666666666669 271.79933073617383,168.7926857353616 274.52340867985055,174.52340867985055 268.7926857353616,171.7993307361738 266.66666666666663,177.77777777777777 264.5406475979717,171.7993307361738 258.80992465348277,174.5234086798505 261.53400259715954,168.79268573536157 255.55555555555557,166.6666666666666 261.53400259715954,164.54064759797168 258.8099246534829,158.80992465348274 264.54064759797177,161.53400259715949" fill="none" stroke="rgb(147, 164, 218)" stroke-width="4"></polygon><polygon points="66.66666666666667,322.2222222222223 68.79268573536162,328.2006692638262 74.52340867985053,325.4765913201495 71.79933073617383,331.20731426463846 77.77777777777779,333.33333333333337 71.79933073617381,335.45935240202834 74.52340867985052,341.19007534651723 68.7926857353616,338.4659974028405 66.66666666666663,344.44444444444446 64.54064759797171,338.4659974028405 58.80992465348278,341.1900753465172 61.534002597159514,335.4593524020283 55.55555555555556,333.3333333333333 61.534002597159535,331.2073142646384 58.80992465348285,325.47659132014945 64.54064759797176,328.2006692638262" fill="none" stroke="rgb(55, 91, 210)" stroke-width="4"></polygon><polygon points="437.58537147072326,323.0680051943191 437.2617043399253,329.40496232674144 443.59866147234766,329.0812951959435 438.8888888888889,333.33333333333337 443.59866147234766,337.58537147072326 437.2617043399253,337.2617043399253 437.5853714707232,343.59866147234766 433.33333333333337,338.8888888888889 429.0812951959434,343.59866147234766 429.40496232674144,337.2617043399253 423.068005194319,337.5853714707232 427.7777777777778,333.33333333333337 423.0680051943191,329.0812951959434 429.40496232674144,329.40496232674144 429.08129519594354,323.068005194319 433.3333333333334,327.7777777777778" fill="none" stroke="rgb(224, 224, 224)" stroke-width="4"></polygon><polygon points="104.2520381373899,323.0680051943191 103.92837100659195,329.40496232674144 110.26532813901431,329.0812951959435 105.55555555555557,333.33333333333337 110.2653281390143,337.58537147072326 103.92837100659193,337.2617043399253 104.25203813738987,343.59866147234766 100,338.8888888888889 95.74796186261008,343.59866147234766 96.07162899340807,337.2617043399253 89.7346718609857,337.5853714707232 94.44444444444446,333.33333333333337 89.73467186098574,329.0812951959434 96.07162899340811,329.40496232674144 95.7479618626102,323.068005194319 100.00000000000006,327.7777777777778" fill="none" stroke="rgb(70, 103, 211)" stroke-width="4"></polygon><polygon points="400.00000000000006,322.2222222222223 402.126019068695,328.2006692638262 407.8567420131839,325.4765913201495 405.1326640695072,331.20731426463846 411.11111111111114,333.33333333333337 405.1326640695072,335.45935240202834 407.8567420131839,341.19007534651723 402.126019068695,338.4659974028405 400,344.44444444444446 397.8739809313051,338.4659974028405 392.14325798681614,341.1900753465172 394.8673359304929,335.4593524020283 388.88888888888897,333.3333333333333 394.8673359304929,331.2073142646384 392.14325798681625,325.47659132014945 397.87398093130514,328.2006692638262" fill="none" stroke="rgb(209, 212, 223)" stroke-width="4"></polygon><polygon points="133.33333333333334,322.2222222222223 135.4593524020283,328.2006692638262 141.1900753465172,325.4765913201495 138.4659974028405,331.20731426463846 144.44444444444446,333.33333333333337 138.4659974028405,335.45935240202834 141.19007534651718,341.19007534651723 135.45935240202826,338.4659974028405 133.33333333333331,344.44444444444446 131.20731426463837,338.4659974028405 125.47659132014945,341.1900753465172 128.20066926382617,335.4593524020283 122.22222222222223,333.3333333333333 128.2006692638262,331.2073142646384 125.47659132014952,325.47659132014945 131.20731426463843,328.2006692638262" fill="none" stroke="rgb(86, 115, 213)" stroke-width="4"></polygon><polygon points="370.9187048040566,323.0680051943191 370.5950376732586,329.40496232674144 376.931994805681,329.0812951959435 372.22222222222223,333.33333333333337 376.931994805681,337.58537147072326 370.5950376732586,337.2617043399253 370.9187048040565,343.59866147234766 366.6666666666667,338.8888888888889 362.41462852927674,343.59866147234766 362.73829566007475,337.2617043399253 356.40133852765234,337.5853714707232 361.11111111111114,333.33333333333337 356.4013385276524,329.0812951959434 362.73829566007475,329.40496232674144 362.41462852927685,323.068005194319 366.66666666666674,327.7777777777778" fill="none" stroke="rgb(193, 200, 221)" stroke-width="4"></polygon><polygon points="170.91870480405655,323.0680051943191 170.5950376732586,329.40496232674144 176.93199480568097,329.0812951959435 172.2222222222222,333.33333333333337 176.93199480568094,337.58537147072326 170.5950376732586,337.2617043399253 170.91870480405652,343.59866147234766 166.66666666666663,338.8888888888889 162.41462852927674,343.59866147234766 162.7382956600747,337.2617043399253 156.40133852765234,337.5853714707232 161.11111111111111,333.33333333333337 156.40133852765237,329.0812951959434 162.73829566007475,329.40496232674144 162.41462852927683,323.068005194319 166.66666666666669,327.7777777777778" fill="none" stroke="rgb(101, 127, 214)" stroke-width="4"></polygon><polygon points="333.33333333333337,322.2222222222223 335.45935240202834,328.2006692638262 341.19007534651723,325.4765913201495 338.4659974028405,331.20731426463846 344.44444444444446,333.33333333333337 338.4659974028405,335.45935240202834 341.19007534651723,341.19007534651723 335.4593524020283,338.4659974028405 333.3333333333333,344.44444444444446 331.2073142646384,338.4659974028405 325.47659132014945,341.1900753465172 328.2006692638262,335.4593524020283 322.2222222222223,333.3333333333333 328.2006692638262,331.2073142646384 325.47659132014957,325.47659132014945 331.20731426463846,328.2006692638262" fill="none" stroke="rgb(178, 188, 220)" stroke-width="4"></polygon><polygon points="200,322.2222222222223 202.12601906869494,328.2006692638262 207.85674201318386,325.4765913201495 205.13266406950714,331.20731426463846 211.11111111111111,333.33333333333337 205.13266406950714,335.45935240202834 207.85674201318383,341.19007534651723 202.12601906869492,338.4659974028405 199.99999999999997,344.44444444444446 197.87398093130503,338.4659974028405 192.1432579868161,341.1900753465172 194.86733593049283,335.4593524020283 188.88888888888889,333.3333333333333 194.86733593049286,331.2073142646384 192.1432579868162,325.47659132014945 197.87398093130508,328.2006692638262" fill="none" stroke="rgb(116, 139, 215)" stroke-width="4"></polygon><polygon points="304.25203813738995,323.0680051943191 303.928371006592,329.40496232674144 310.26532813901434,329.0812951959435 305.5555555555556,333.33333333333337 310.26532813901434,337.58537147072326 303.928371006592,337.2617043399253 304.2520381373899,343.59866147234766 300.00000000000006,338.8888888888889 295.7479618626101,343.59866147234766 296.0716289934081,337.2617043399253 289.7346718609857,337.5853714707232 294.4444444444445,333.33333333333337 289.73467186098577,329.0812951959434 296.0716289934081,329.40496232674144 295.7479618626102,323.068005194319 300.0000000000001,327.7777777777778" fill="none" stroke="rgb(163, 176, 219)" stroke-width="4"></polygon><polygon points="237.58537147072323,323.0680051943191 237.26170433992527,329.40496232674144 243.59866147234766,329.0812951959435 238.88888888888889,333.33333333333337 243.59866147234763,337.58537147072326 237.26170433992527,337.2617043399253 237.5853714707232,343.59866147234766 233.33333333333331,338.8888888888889 229.08129519594343,343.59866147234766 229.40496232674138,337.2617043399253 223.06800519431903,337.5853714707232 227.7777777777778,333.33333333333337 223.06800519431906,329.0812951959434 229.40496232674144,329.40496232674144 229.0812951959435,323.068005194319 233.33333333333337,327.7777777777778" fill="none" stroke="rgb(132, 151, 216)" stroke-width="4"></polygon><polygon points="266.6666666666667,322.2222222222223 268.7926857353616,328.2006692638262 274.52340867985055,325.4765913201495 271.79933073617383,331.20731426463846 277.77777777777777,333.33333333333337 271.79933073617383,335.45935240202834 274.52340867985055,341.19007534651723 268.7926857353616,338.4659974028405 266.66666666666663,344.44444444444446 264.5406475979717,338.4659974028405 258.80992465348277,341.1900753465172 261.53400259715954,335.4593524020283 255.55555555555557,333.3333333333333 261.53400259715954,331.2073142646384 258.8099246534829,325.47659132014945 264.54064759797177,328.2006692638262" fill="none" stroke="rgb(147, 164, 218)" stroke-width="4"></polygon><polygon points="66.66666666666667,188.88888888888889 68.79268573536162,194.86733593049286 74.52340867985053,192.14325798681614 71.79933073617383,197.87398093130506 77.77777777777779,200.00000000000003 71.79933073617381,202.12601906869494 74.52340867985052,207.8567420131839 68.7926857353616,205.13266406950714 66.66666666666663,211.11111111111111 64.54064759797171,205.13266406950714 58.80992465348278,207.85674201318383 61.534002597159514,202.12601906869492 55.55555555555556,199.99999999999994 61.534002597159535,197.87398093130503 58.80992465348285,192.14325798681608 64.54064759797176,194.86733593049283" fill="none" stroke="rgb(55, 91, 210)" stroke-width="4"></polygon><polygon points="437.58537147072326,189.7346718609857 437.2617043399253,196.07162899340807 443.59866147234766,195.7479618626101 438.8888888888889,200 443.59866147234766,204.25203813738992 437.2617043399253,203.92837100659193 437.5853714707232,210.26532813901431 433.33333333333337,205.55555555555554 429.0812951959434,210.2653281390143 429.40496232674144,203.9283710065919 423.068005194319,204.25203813738983 427.7777777777778,199.99999999999997 423.0680051943191,195.74796186261005 429.40496232674144,196.07162899340804 429.08129519594354,189.73467186098569 433.3333333333334,194.44444444444446" fill="none" stroke="rgb(224, 224, 224)" stroke-width="4"></polygon><polygon points="104.2520381373899,189.7346718609857 103.92837100659195,196.07162899340807 110.26532813901431,195.7479618626101 105.55555555555557,200 110.2653281390143,204.25203813738992 103.92837100659193,203.92837100659193 104.25203813738987,210.26532813901431 100,205.55555555555554 95.74796186261008,210.2653281390143 96.07162899340807,203.9283710065919 89.7346718609857,204.25203813738983 94.44444444444446,199.99999999999997 89.73467186098574,195.74796186261005 96.07162899340811,196.07162899340804 95.7479618626102,189.73467186098569 100.00000000000006,194.44444444444446" fill="none" stroke="rgb(70, 103, 211)" stroke-width="4"></polygon><polygon points="400.00000000000006,188.88888888888889 402.126019068695,194.86733593049286 407.8567420131839,192.14325798681614 405.1326640695072,197.87398093130506 411.11111111111114,200.00000000000003 405.1326640695072,202.12601906869494 407.8567420131839,207.8567420131839 402.126019068695,205.13266406950714 400,211.11111111111111 397.8739809313051,205.13266406950714 392.14325798681614,207.85674201318383 394.8673359304929,202.12601906869492 388.88888888888897,199.99999999999994 394.8673359304929,197.87398093130503 392.14325798681625,192.14325798681608 397.87398093130514,194.86733593049283" fill="none" stroke="rgb(209, 212, 223)" stroke-width="4"></polygon><polygon points="133.33333333333334,188.88888888888889 135.4593524020283,194.86733593049286 141.1900753465172,192.14325798681614 138.4659974028405,197.87398093130506 144.44444444444446,200.00000000000003 138.4659974028405,202.12601906869494 141.19007534651718,207.8567420131839 135.45935240202826,205.13266406950714 133.33333333333331,211.11111111111111 131.20731426463837,205.13266406950714 125.47659132014945,207.85674201318383 128.20066926382617,202.12601906869492 122.22222222222223,199.99999999999994 128.2006692638262,197.87398093130503 125.47659132014952,192.14325798681608 131.20731426463843,194.86733593049283" fill="none" stroke="rgb(86, 115, 213)" stroke-width="4"></polygon><polygon points="370.9187048040566,189.7346718609857 370.5950376732586,196.07162899340807 376.931994805681,195.7479618626101 372.22222222222223,200 376.931994805681,204.25203813738992 370.5950376732586,203.92837100659193 370.9187048040565,210.26532813901431 366.6666666666667,205.55555555555554 362.41462852927674,210.2653281390143 362.73829566007475,203.9283710065919 356.40133852765234,204.25203813738983 361.11111111111114,199.99999999999997 356.4013385276524,195.74796186261005 362.73829566007475,196.07162899340804 362.41462852927685,189.73467186098569 366.66666666666674,194.44444444444446" fill="none" stroke="rgb(193, 200, 221)" stroke-width="4"></polygon><polygon points="170.91870480405655,189.7346718609857 170.5950376732586,196.07162899340807 176.93199480568097,195.7479618626101 172.2222222222222,200 176.93199480568094,204.25203813738992 170.5950376732586,203.92837100659193 170.91870480405652,210.26532813901431 166.66666666666663,205.55555555555554 162.41462852927674,210.2653281390143 162.7382956600747,203.9283710065919 156.40133852765234,204.25203813738983 161.11111111111111,199.99999999999997 156.40133852765237,195.74796186261005 162.73829566007475,196.07162899340804 162.41462852927683,189.73467186098569 166.66666666666669,194.44444444444446" fill="none" stroke="rgb(101, 127, 214)" stroke-width="4"></polygon><polygon points="333.33333333333337,188.88888888888889 335.45935240202834,194.86733593049286 341.19007534651723,192.14325798681614 338.4659974028405,197.87398093130506 344.44444444444446,200.00000000000003 338.4659974028405,202.12601906869494 341.19007534651723,207.8567420131839 335.4593524020283,205.13266406950714 333.3333333333333,211.11111111111111 331.2073142646384,205.13266406950714 325.47659132014945,207.85674201318383 328.2006692638262,202.12601906869492 322.2222222222223,199.99999999999994 328.2006692638262,197.87398093130503 325.47659132014957,192.14325798681608 331.20731426463846,194.86733593049283" fill="none" stroke="rgb(178, 188, 220)" stroke-width="4"></polygon><polygon points="200,188.88888888888889 202.12601906869494,194.86733593049286 207.85674201318386,192.14325798681614 205.13266406950714,197.87398093130506 211.11111111111111,200.00000000000003 205.13266406950714,202.12601906869494 207.85674201318383,207.8567420131839 202.12601906869492,205.13266406950714 199.99999999999997,211.11111111111111 197.87398093130503,205.13266406950714 192.1432579868161,207.85674201318383 194.86733593049283,202.12601906869492 188.88888888888889,199.99999999999994 194.86733593049286,197.87398093130503 192.1432579868162,192.14325798681608 197.87398093130508,194.86733593049283" fill="none" stroke="rgb(116, 139, 215)" stroke-width="4"></polygon><polygon points="304.25203813738995,189.7346718609857 303.928371006592,196.07162899340807 310.26532813901434,195.7479618626101 305.5555555555556,200 310.26532813901434,204.25203813738992 303.928371006592,203.92837100659193 304.2520381373899,210.26532813901431 300.00000000000006,205.55555555555554 295.7479618626101,210.2653281390143 296.0716289934081,203.9283710065919 289.7346718609857,204.25203813738983 294.4444444444445,199.99999999999997 289.73467186098577,195.74796186261005 296.0716289934081,196.07162899340804 295.7479618626102,189.73467186098569 300.0000000000001,194.44444444444446" fill="none" stroke="rgb(163, 176, 219)" stroke-width="4"></polygon><polygon points="237.58537147072323,189.7346718609857 237.26170433992527,196.07162899340807 243.59866147234766,195.7479618626101 238.88888888888889,200 243.59866147234763,204.25203813738992 237.26170433992527,203.92837100659193 237.5853714707232,210.26532813901431 233.33333333333331,205.55555555555554 229.08129519594343,210.2653281390143 229.40496232674138,203.9283710065919 223.06800519431903,204.25203813738983 227.7777777777778,199.99999999999997 223.06800519431906,195.74796186261005 229.40496232674144,196.07162899340804 229.0812951959435,189.73467186098569 233.33333333333337,194.44444444444446" fill="none" stroke="rgb(132, 151, 216)" stroke-width="4"></polygon><polygon points="266.6666666666667,188.88888888888889 268.7926857353616,194.86733593049286 274.52340867985055,192.14325798681614 271.79933073617383,197.87398093130506 277.77777777777777,200.00000000000003 271.79933073617383,202.12601906869494 274.52340867985055,207.8567420131839 268.7926857353616,205.13266406950714 266.66666666666663,211.11111111111111 264.5406475979717,205.13266406950714 258.80992465348277,207.85674201318383 261.53400259715954,202.12601906869492 255.55555555555557,199.99999999999994 261.53400259715954,197.87398093130503 258.8099246534829,192.14325798681608 264.54064759797177,194.86733593049283" fill="none" stroke="rgb(147, 164, 218)" stroke-width="4"></polygon><polygon points="66.66666666666667,288.88888888888897 68.79268573536162,294.8673359304929 74.52340867985053,292.1432579868162 71.79933073617383,297.87398093130514 77.77777777777779,300.00000000000006 71.79933073617381,302.12601906869503 74.52340867985052,307.8567420131839 68.7926857353616,305.1326640695072 66.66666666666663,311.11111111111114 64.54064759797171,305.1326640695072 58.80992465348278,307.85674201318386 61.534002597159514,302.126019068695 55.55555555555556,300 61.534002597159535,297.8739809313051 58.80992465348285,292.14325798681614 64.54064759797176,294.8673359304929" fill="none" stroke="rgb(55, 91, 210)" stroke-width="4"></polygon><polygon points="437.58537147072326,289.73467186098577 437.2617043399253,296.0716289934081 443.59866147234766,295.74796186261017 438.8888888888889,300.00000000000006 443.59866147234766,304.25203813738995 437.2617043399253,303.928371006592 437.5853714707232,310.26532813901434 433.33333333333337,305.5555555555556 429.0812951959434,310.26532813901434 429.40496232674144,303.928371006592 423.068005194319,304.2520381373899 427.7777777777778,300.00000000000006 423.0680051943191,295.7479618626101 429.40496232674144,296.0716289934081 429.08129519594354,289.7346718609857 433.3333333333334,294.4444444444445" fill="none" stroke="rgb(224, 224, 224)" stroke-width="4"></polygon><polygon points="104.2520381373899,289.73467186098577 103.92837100659195,296.0716289934081 110.26532813901431,295.74796186261017 105.55555555555557,300.00000000000006 110.2653281390143,304.25203813738995 103.92837100659193,303.928371006592 104.25203813738987,310.26532813901434 100,305.5555555555556 95.74796186261008,310.26532813901434 96.07162899340807,303.928371006592 89.7346718609857,304.2520381373899 94.44444444444446,300.00000000000006 89.73467186098574,295.7479618626101 96.07162899340811,296.0716289934081 95.7479618626102,289.7346718609857 100.00000000000006,294.4444444444445" fill="none" stroke="rgb(70, 103, 211)" stroke-width="4"></polygon><polygon points="400.00000000000006,288.88888888888897 402.126019068695,294.8673359304929 407.8567420131839,292.1432579868162 405.1326640695072,297.87398093130514 411.11111111111114,300.00000000000006 405.1326640695072,302.12601906869503 407.8567420131839,307.8567420131839 402.126019068695,305.1326640695072 400,311.11111111111114 397.8739809313051,305.1326640695072 392.14325798681614,307.85674201318386 394.8673359304929,302.126019068695 388.88888888888897,300 394.8673359304929,297.8739809313051 392.14325798681625,292.14325798681614 397.87398093130514,294.8673359304929" fill="none" stroke="rgb(209, 212, 223)" stroke-width="4"></polygon><polygon points="133.33333333333334,288.88888888888897 135.4593524020283,294.8673359304929 141.1900753465172,292.1432579868162 138.4659974028405,297.87398093130514 144.44444444444446,300.00000000000006 138.4659974028405,302.12601906869503 141.19007534651718,307.8567420131839 135.45935240202826,305.1326640695072 133.33333333333331,311.11111111111114 131.20731426463837,305.1326640695072 125.47659132014945,307.85674201318386 128.20066926382617,302.126019068695 122.22222222222223,300 128.2006692638262,297.8739809313051 125.47659132014952,292.14325798681614 131.20731426463843,294.8673359304929" fill="none" stroke="rgb(86, 115, 213)" stroke-width="4"></polygon><polygon points="370.9187048040566,289.73467186098577 370.5950376732586,296.0716289934081 376.931994805681,295.74796186261017 372.22222222222223,300.00000000000006 376.931994805681,304.25203813738995 370.5950376732586,303.928371006592 370.9187048040565,310.26532813901434 366.6666666666667,305.5555555555556 362.41462852927674,310.26532813901434 362.73829566007475,303.928371006592 356.40133852765234,304.2520381373899 361.11111111111114,300.00000000000006 356.4013385276524,295.7479618626101 362.73829566007475,296.0716289934081 362.41462852927685,289.7346718609857 366.66666666666674,294.4444444444445" fill="none" stroke="rgb(193, 200, 221)" stroke-width="4"></polygon><polygon points="170.91870480405655,289.73467186098577 170.5950376732586,296.0716289934081 176.93199480568097,295.74796186261017 172.2222222222222,300.00000000000006 176.93199480568094,304.25203813738995 170.5950376732586,303.928371006592 170.91870480405652,310.26532813901434 166.66666666666663,305.5555555555556 162.41462852927674,310.26532813901434 162.7382956600747,303.928371006592 156.40133852765234,304.2520381373899 161.11111111111111,300.00000000000006 156.40133852765237,295.7479618626101 162.73829566007475,296.0716289934081 162.41462852927683,289.7346718609857 166.66666666666669,294.4444444444445" fill="none" stroke="rgb(101, 127, 214)" stroke-width="4"></polygon><polygon points="333.33333333333337,288.88888888888897 335.45935240202834,294.8673359304929 341.19007534651723,292.1432579868162 338.4659974028405,297.87398093130514 344.44444444444446,300.00000000000006 338.4659974028405,302.12601906869503 341.19007534651723,307.8567420131839 335.4593524020283,305.1326640695072 333.3333333333333,311.11111111111114 331.2073142646384,305.1326640695072 325.47659132014945,307.85674201318386 328.2006692638262,302.126019068695 322.2222222222223,300 328.2006692638262,297.8739809313051 325.47659132014957,292.14325798681614 331.20731426463846,294.8673359304929" fill="none" stroke="rgb(178, 188, 220)" stroke-width="4"></polygon><polygon points="200,288.88888888888897 202.12601906869494,294.8673359304929 207.85674201318386,292.1432579868162 205.13266406950714,297.87398093130514 211.11111111111111,300.00000000000006 205.13266406950714,302.12601906869503 207.85674201318383,307.8567420131839 202.12601906869492,305.1326640695072 199.99999999999997,311.11111111111114 197.87398093130503,305.1326640695072 192.1432579868161,307.85674201318386 194.86733593049283,302.126019068695 188.88888888888889,300 194.86733593049286,297.8739809313051 192.1432579868162,292.14325798681614 197.87398093130508,294.8673359304929" fill="none" stroke="rgb(116, 139, 215)" stroke-width="4"></polygon><polygon points="304.25203813738995,289.73467186098577 303.928371006592,296.0716289934081 310.26532813901434,295.74796186261017 305.5555555555556,300.00000000000006 310.26532813901434,304.25203813738995 303.928371006592,303.928371006592 304.2520381373899,310.26532813901434 300.00000000000006,305.5555555555556 295.7479618626101,310.26532813901434 296.0716289934081,303.928371006592 289.7346718609857,304.2520381373899 294.4444444444445,300.00000000000006 289.73467186098577,295.7479618626101 296.0716289934081,296.0716289934081 295.7479618626102,289.7346718609857 300.0000000000001,294.4444444444445" fill="none" stroke="rgb(163, 176, 219)" stroke-width="4"></polygon><polygon points="237.58537147072323,289.73467186098577 237.26170433992527,296.0716289934081 243.59866147234766,295.74796186261017 238.88888888888889,300.00000000000006 243.59866147234763,304.25203813738995 237.26170433992527,303.928371006592 237.5853714707232,310.26532813901434 233.33333333333331,305.5555555555556 229.08129519594343,310.26532813901434 229.40496232674138,303.928371006592 223.06800519431903,304.2520381373899 227.7777777777778,300.00000000000006 223.06800519431906,295.7479618626101 229.40496232674144,296.0716289934081 229.0812951959435,289.7346718609857 233.33333333333337,294.4444444444445" fill="none" stroke="rgb(132, 151, 216)" stroke-width="4"></polygon><polygon points="266.6666666666667,288.88888888888897 268.7926857353616,294.8673359304929 274.52340867985055,292.1432579868162 271.79933073617383,297.87398093130514 277.77777777777777,300.00000000000006 271.79933073617383,302.12601906869503 274.52340867985055,307.8567420131839 268.7926857353616,305.1326640695072 266.66666666666663,311.11111111111114 264.5406475979717,305.1326640695072 258.80992465348277,307.85674201318386 261.53400259715954,302.126019068695 255.55555555555557,300 261.53400259715954,297.8739809313051 258.8099246534829,292.14325798681614 264.54064759797177,294.8673359304929" fill="none" stroke="rgb(147, 164, 218)" stroke-width="4"></polygon><polygon points="66.66666666666667,222.22222222222223 68.79268573536162,228.2006692638262 74.52340867985053,225.47659132014948 71.79933073617383,231.2073142646384 77.77777777777779,233.33333333333337 71.79933073617381,235.4593524020283 74.52340867985052,241.19007534651723 68.7926857353616,238.4659974028405 66.66666666666663,244.44444444444446 64.54064759797171,238.4659974028405 58.80992465348278,241.19007534651718 61.534002597159514,235.45935240202826 55.55555555555556,233.3333333333333 61.534002597159535,231.20731426463837 58.80992465348285,225.47659132014942 64.54064759797176,228.20066926382617" fill="none" stroke="rgb(55, 91, 210)" stroke-width="4"></polygon><polygon points="437.58537147072326,223.06800519431906 437.2617043399253,229.4049623267414 443.59866147234766,229.08129519594348 438.8888888888889,233.33333333333334 443.59866147234766,237.58537147072326 437.2617043399253,237.26170433992527 437.5853714707232,243.59866147234766 433.33333333333337,238.88888888888889 429.0812951959434,243.59866147234763 429.40496232674144,237.26170433992525 423.068005194319,237.58537147072317 427.7777777777778,233.33333333333331 423.0680051943191,229.0812951959434 429.40496232674144,229.40496232674138 429.08129519594354,223.06800519431903 433.3333333333334,227.7777777777778" fill="none" stroke="rgb(224, 224, 224)" stroke-width="4"></polygon><polygon points="104.2520381373899,223.06800519431906 103.92837100659195,229.4049623267414 110.26532813901431,229.08129519594348 105.55555555555557,233.33333333333334 110.2653281390143,237.58537147072326 103.92837100659193,237.26170433992527 104.25203813738987,243.59866147234766 100,238.88888888888889 95.74796186261008,243.59866147234763 96.07162899340807,237.26170433992525 89.7346718609857,237.58537147072317 94.44444444444446,233.33333333333331 89.73467186098574,229.0812951959434 96.07162899340811,229.40496232674138 95.7479618626102,223.06800519431903 100.00000000000006,227.7777777777778" fill="none" stroke="rgb(70, 103, 211)" stroke-width="4"></polygon><polygon points="400.00000000000006,222.22222222222223 402.126019068695,228.2006692638262 407.8567420131839,225.47659132014948 405.1326640695072,231.2073142646384 411.11111111111114,233.33333333333337 405.1326640695072,235.4593524020283 407.8567420131839,241.19007534651723 402.126019068695,238.4659974028405 400,244.44444444444446 397.8739809313051,238.4659974028405 392.14325798681614,241.19007534651718 394.8673359304929,235.45935240202826 388.88888888888897,233.3333333333333 394.8673359304929,231.20731426463837 392.14325798681625,225.47659132014942 397.87398093130514,228.20066926382617" fill="none" stroke="rgb(209, 212, 223)" stroke-width="4"></polygon><polygon points="133.33333333333334,222.22222222222223 135.4593524020283,228.2006692638262 141.1900753465172,225.47659132014948 138.4659974028405,231.2073142646384 144.44444444444446,233.33333333333337 138.4659974028405,235.4593524020283 141.19007534651718,241.19007534651723 135.45935240202826,238.4659974028405 133.33333333333331,244.44444444444446 131.20731426463837,238.4659974028405 125.47659132014945,241.19007534651718 128.20066926382617,235.45935240202826 122.22222222222223,233.3333333333333 128.2006692638262,231.20731426463837 125.47659132014952,225.47659132014942 131.20731426463843,228.20066926382617" fill="none" stroke="rgb(86, 115, 213)" stroke-width="4"></polygon><polygon points="370.9187048040566,223.06800519431906 370.5950376732586,229.4049623267414 376.931994805681,229.08129519594348 372.22222222222223,233.33333333333334 376.931994805681,237.58537147072326 370.5950376732586,237.26170433992527 370.9187048040565,243.59866147234766 366.6666666666667,238.88888888888889 362.41462852927674,243.59866147234763 362.73829566007475,237.26170433992525 356.40133852765234,237.58537147072317 361.11111111111114,233.33333333333331 356.4013385276524,229.0812951959434 362.73829566007475,229.40496232674138 362.41462852927685,223.06800519431903 366.66666666666674,227.7777777777778" fill="none" stroke="rgb(193, 200, 221)" stroke-width="4"></polygon><polygon points="170.91870480405655,223.06800519431906 170.5950376732586,229.4049623267414 176.93199480568097,229.08129519594348 172.2222222222222,233.33333333333334 176.93199480568094,237.58537147072326 170.5950376732586,237.26170433992527 170.91870480405652,243.59866147234766 166.66666666666663,238.88888888888889 162.41462852927674,243.59866147234763 162.7382956600747,237.26170433992525 156.40133852765234,237.58537147072317 161.11111111111111,233.33333333333331 156.40133852765237,229.0812951959434 162.73829566007475,229.40496232674138 162.41462852927683,223.06800519431903 166.66666666666669,227.7777777777778" fill="none" stroke="rgb(101, 127, 214)" stroke-width="4"></polygon><polygon points="333.33333333333337,222.22222222222223 335.45935240202834,228.2006692638262 341.19007534651723,225.47659132014948 338.4659974028405,231.2073142646384 344.44444444444446,233.33333333333337 338.4659974028405,235.4593524020283 341.19007534651723,241.19007534651723 335.4593524020283,238.4659974028405 333.3333333333333,244.44444444444446 331.2073142646384,238.4659974028405 325.47659132014945,241.19007534651718 328.2006692638262,235.45935240202826 322.2222222222223,233.3333333333333 328.2006692638262,231.20731426463837 325.47659132014957,225.47659132014942 331.20731426463846,228.20066926382617" fill="none" stroke="rgb(178, 188, 220)" stroke-width="4"></polygon><polygon points="200,222.22222222222223 202.12601906869494,228.2006692638262 207.85674201318386,225.47659132014948 205.13266406950714,231.2073142646384 211.11111111111111,233.33333333333337 205.13266406950714,235.4593524020283 207.85674201318383,241.19007534651723 202.12601906869492,238.4659974028405 199.99999999999997,244.44444444444446 197.87398093130503,238.4659974028405 192.1432579868161,241.19007534651718 194.86733593049283,235.45935240202826 188.88888888888889,233.3333333333333 194.86733593049286,231.20731426463837 192.1432579868162,225.47659132014942 197.87398093130508,228.20066926382617" fill="none" stroke="rgb(116, 139, 215)" stroke-width="4"></polygon><polygon points="304.25203813738995,223.06800519431906 303.928371006592,229.4049623267414 310.26532813901434,229.08129519594348 305.5555555555556,233.33333333333334 310.26532813901434,237.58537147072326 303.928371006592,237.26170433992527 304.2520381373899,243.59866147234766 300.00000000000006,238.88888888888889 295.7479618626101,243.59866147234763 296.0716289934081,237.26170433992525 289.7346718609857,237.58537147072317 294.4444444444445,233.33333333333331 289.73467186098577,229.0812951959434 296.0716289934081,229.40496232674138 295.7479618626102,223.06800519431903 300.0000000000001,227.7777777777778" fill="none" stroke="rgb(163, 176, 219)" stroke-width="4"></polygon><polygon points="237.58537147072323,223.06800519431906 237.26170433992527,229.4049623267414 243.59866147234766,229.08129519594348 238.88888888888889,233.33333333333334 243.59866147234763,237.58537147072326 237.26170433992527,237.26170433992527 237.5853714707232,243.59866147234766 233.33333333333331,238.88888888888889 229.08129519594343,243.59866147234763 229.40496232674138,237.26170433992525 223.06800519431903,237.58537147072317 227.7777777777778,233.33333333333331 223.06800519431906,229.0812951959434 229.40496232674144,229.40496232674138 229.0812951959435,223.06800519431903 233.33333333333337,227.7777777777778" fill="none" stroke="rgb(132, 151, 216)" stroke-width="4"></polygon><polygon points="266.6666666666667,222.22222222222223 268.7926857353616,228.2006692638262 274.52340867985055,225.47659132014948 271.79933073617383,231.2073142646384 277.77777777777777,233.33333333333337 271.79933073617383,235.4593524020283 274.52340867985055,241.19007534651723 268.7926857353616,238.4659974028405 266.66666666666663,244.44444444444446 264.5406475979717,238.4659974028405 258.80992465348277,241.19007534651718 261.53400259715954,235.45935240202826 255.55555555555557,233.3333333333333 261.53400259715954,231.20731426463837 258.8099246534829,225.47659132014942 264.54064759797177,228.20066926382617" fill="none" stroke="rgb(147, 164, 218)" stroke-width="4"></polygon><polygon points="66.66666666666667,255.55555555555557 68.79268573536162,261.53400259715954 74.52340867985053,258.8099246534828 71.79933073617383,264.54064759797177 77.77777777777779,266.6666666666667 71.79933073617381,268.79268573536166 74.52340867985052,274.52340867985055 68.7926857353616,271.79933073617383 66.66666666666663,277.77777777777777 64.54064759797171,271.79933073617383 58.80992465348278,274.5234086798505 61.534002597159514,268.7926857353616 55.55555555555556,266.66666666666663 61.534002597159535,264.5406475979717 58.80992465348285,258.80992465348277 64.54064759797176,261.53400259715954" fill="none" stroke="rgb(55, 91, 210)" stroke-width="4"></polygon><polygon points="437.58537147072326,256.4013385276524 437.2617043399253,262.73829566007475 443.59866147234766,262.4146285292768 438.8888888888889,266.6666666666667 443.59866147234766,270.9187048040566 437.2617043399253,270.5950376732586 437.5853714707232,276.931994805681 433.33333333333337,272.22222222222223 429.0812951959434,276.931994805681 429.40496232674144,270.5950376732586 423.068005194319,270.9187048040565 427.7777777777778,266.6666666666667 423.0680051943191,262.41462852927674 429.40496232674144,262.73829566007475 429.08129519594354,256.40133852765234 433.3333333333334,261.11111111111114" fill="none" stroke="rgb(224, 224, 224)" stroke-width="4"></polygon><polygon points="104.2520381373899,256.4013385276524 103.92837100659195,262.73829566007475 110.26532813901431,262.4146285292768 105.55555555555557,266.6666666666667 110.2653281390143,270.9187048040566 103.92837100659193,270.5950376732586 104.25203813738987,276.931994805681 100,272.22222222222223 95.74796186261008,276.931994805681 96.07162899340807,270.5950376732586 89.7346718609857,270.9187048040565 94.44444444444446,266.6666666666667 89.73467186098574,262.41462852927674 96.07162899340811,262.73829566007475 95.7479618626102,256.40133852765234 100.00000000000006,261.11111111111114" fill="none" stroke="rgb(70, 103, 211)" stroke-width="4"></polygon><polygon points="400.00000000000006,255.55555555555557 402.126019068695,261.53400259715954 407.8567420131839,258.8099246534828 405.1326640695072,264.54064759797177 411.11111111111114,266.6666666666667 405.1326640695072,268.79268573536166 407.8567420131839,274.52340867985055 402.126019068695,271.79933073617383 400,277.77777777777777 397.8739809313051,271.79933073617383 392.14325798681614,274.5234086798505 394.8673359304929,268.7926857353616 388.88888888888897,266.66666666666663 394.8673359304929,264.5406475979717 392.14325798681625,258.80992465348277 397.87398093130514,261.53400259715954" fill="none" stroke="rgb(209, 212, 223)" stroke-width="4"></polygon><polygon points="133.33333333333334,255.55555555555557 135.4593524020283,261.53400259715954 141.1900753465172,258.8099246534828 138.4659974028405,264.54064759797177 144.44444444444446,266.6666666666667 138.4659974028405,268.79268573536166 141.19007534651718,274.52340867985055 135.45935240202826,271.79933073617383 133.33333333333331,277.77777777777777 131.20731426463837,271.79933073617383 125.47659132014945,274.5234086798505 128.20066926382617,268.7926857353616 122.22222222222223,266.66666666666663 128.2006692638262,264.5406475979717 125.47659132014952,258.80992465348277 131.20731426463843,261.53400259715954" fill="none" stroke="rgb(86, 115, 213)" stroke-width="4"></polygon><polygon points="370.9187048040566,256.4013385276524 370.5950376732586,262.73829566007475 376.931994805681,262.4146285292768 372.22222222222223,266.6666666666667 376.931994805681,270.9187048040566 370.5950376732586,270.5950376732586 370.9187048040565,276.931994805681 366.6666666666667,272.22222222222223 362.41462852927674,276.931994805681 362.73829566007475,270.5950376732586 356.40133852765234,270.9187048040565 361.11111111111114,266.6666666666667 356.4013385276524,262.41462852927674 362.73829566007475,262.73829566007475 362.41462852927685,256.40133852765234 366.66666666666674,261.11111111111114" fill="none" stroke="rgb(193, 200, 221)" stroke-width="4"></polygon><polygon points="170.91870480405655,256.4013385276524 170.5950376732586,262.73829566007475 176.93199480568097,262.4146285292768 172.2222222222222,266.6666666666667 176.93199480568094,270.9187048040566 170.5950376732586,270.5950376732586 170.91870480405652,276.931994805681 166.66666666666663,272.22222222222223 162.41462852927674,276.931994805681 162.7382956600747,270.5950376732586 156.40133852765234,270.9187048040565 161.11111111111111,266.6666666666667 156.40133852765237,262.41462852927674 162.73829566007475,262.73829566007475 162.41462852927683,256.40133852765234 166.66666666666669,261.11111111111114" fill="none" stroke="rgb(101, 127, 214)" stroke-width="4"></polygon><polygon points="333.33333333333337,255.55555555555557 335.45935240202834,261.53400259715954 341.19007534651723,258.8099246534828 338.4659974028405,264.54064759797177 344.44444444444446,266.6666666666667 338.4659974028405,268.79268573536166 341.19007534651723,274.52340867985055 335.4593524020283,271.79933073617383 333.3333333333333,277.77777777777777 331.2073142646384,271.79933073617383 325.47659132014945,274.5234086798505 328.2006692638262,268.7926857353616 322.2222222222223,266.66666666666663 328.2006692638262,264.5406475979717 325.47659132014957,258.80992465348277 331.20731426463846,261.53400259715954" fill="none" stroke="rgb(178, 188, 220)" stroke-width="4"></polygon><polygon points="200,255.55555555555557 202.12601906869494,261.53400259715954 207.85674201318386,258.8099246534828 205.13266406950714,264.54064759797177 211.11111111111111,266.6666666666667 205.13266406950714,268.79268573536166 207.85674201318383,274.52340867985055 202.12601906869492,271.79933073617383 199.99999999999997,277.77777777777777 197.87398093130503,271.79933073617383 192.1432579868161,274.5234086798505 194.86733593049283,268.7926857353616 188.88888888888889,266.66666666666663 194.86733593049286,264.5406475979717 192.1432579868162,258.80992465348277 197.87398093130508,261.53400259715954" fill="none" stroke="rgb(116, 139, 215)" stroke-width="4"></polygon><polygon points="304.25203813738995,256.4013385276524 303.928371006592,262.73829566007475 310.26532813901434,262.4146285292768 305.5555555555556,266.6666666666667 310.26532813901434,270.9187048040566 303.928371006592,270.5950376732586 304.2520381373899,276.931994805681 300.00000000000006,272.22222222222223 295.7479618626101,276.931994805681 296.0716289934081,270.5950376732586 289.7346718609857,270.9187048040565 294.4444444444445,266.6666666666667 289.73467186098577,262.41462852927674 296.0716289934081,262.73829566007475 295.7479618626102,256.40133852765234 300.0000000000001,261.11111111111114" fill="none" stroke="rgb(163, 176, 219)" stroke-width="4"></polygon><polygon points="237.58537147072323,256.4013385276524 237.26170433992527,262.73829566007475 243.59866147234766,262.4146285292768 238.88888888888889,266.6666666666667 243.59866147234763,270.9187048040566 237.26170433992527,270.5950376732586 237.5853714707232,276.931994805681 233.33333333333331,272.22222222222223 229.08129519594343,276.931994805681 229.40496232674138,270.5950376732586 223.06800519431903,270.9187048040565 227.7777777777778,266.6666666666667 223.06800519431906,262.41462852927674 229.40496232674144,262.73829566007475 229.0812951959435,256.40133852765234 233.33333333333337,261.11111111111114" fill="none" stroke="rgb(132, 151, 216)" stroke-width="4"></polygon><polygon points="266.6666666666667,255.55555555555557 268.7926857353616,261.53400259715954 274.52340867985055,258.8099246534828 271.79933073617383,264.54064759797177 277.77777777777777,266.6666666666667 271.79933073617383,268.79268573536166 274.52340867985055,274.52340867985055 268.7926857353616,271.79933073617383 266.66666666666663,277.77777777777777 264.5406475979717,271.79933073617383 258.80992465348277,274.5234086798505 261.53400259715954,268.7926857353616 255.55555555555557,266.66666666666663 261.53400259715954,264.5406475979717 258.8099246534829,258.80992465348277 264.54064759797177,261.53400259715954" fill="none" stroke="rgb(147, 164, 218)" stroke-width="4"></polygon></svg>